<?xml version="1.0" encoding="utf-8"?><svg id="bluecubes2" image-rendering="auto" baseProfile="basic" version="1.1" x="0px" y="0px" width="160" height="80" xmlns="http://www.w3.org/2000/svg" xmlns:xlink="http://www.w3.org/1999/xlink"><g id="Scene-1" overflow="visible"><g display="none" id="Layer166_0_FILL"><path fill="#F3FBFE" stroke="none" d="M103.75 15.55L81.85 7.4 59.9 15.55 59.9 20.2 81.85 28.35 103.75 20.2 103.75 15.55Z"/><path fill="#CCEFFC" stroke="none" d="M82.2 11.75L82.2 7.4 81.45 7.4 81.45 11.75 59.8 19.85 60.05 20.55 81.85 12.4 103.6 20.55 103.9 19.85 82.2 11.75Z"/><path fill="#82D4F2" stroke="none" d="M104.25 20.55L104.25 15.2 81.85 6.85 59.4 15.2 59.4 20.55 81.85 28.9 104.25 20.55M103.25 16.3L103.25 19.85 82.35 27.65 82.35 24.1 103.25 16.3M102.3 15.55L81.85 23.2 61.35 15.55 81.85 7.9 102.3 15.55M81.35 24.1L81.35 27.65 60.4 19.85 60.4 16.3 81.35 24.1Z"/><animate attributeName="display" repeatCount="indefinite" dur="1.2s" keyTimes="0;.917;1" values="none;inline;inline"/></g><g display="none" id="Layer163_0_FILL"><path fill="#F3FBFE" stroke="none" d="M103.75 15.55L81.85 7.4 59.9 15.55 59.9 20.2 81.85 28.35 103.75 20.2 103.75 15.55Z"/><path fill="#CCEFFC" stroke="none" d="M82.2 11.75L82.2 7.4 81.45 7.4 81.45 11.75 59.8 19.85 60.05 20.55 81.85 12.4 103.6 20.55 103.9 19.85 82.2 11.75Z"/><path fill="#00ABE8" stroke="none" d="M104.25 20.55L104.25 15.2 81.85 6.85 59.4 15.2 59.4 20.55 81.85 28.9 104.25 20.55M103.25 16.3L103.25 19.85 82.35 27.65 82.35 24.1 103.25 16.3M102.3 15.55L81.85 23.2 61.35 15.55 81.85 7.9 102.3 15.55M81.35 24.1L81.35 27.65 60.4 19.85 60.4 16.3 81.35 24.1Z"/><animate attributeName="display" repeatCount="indefinite" dur="1.2s" keyTimes="0;.833;.917;1" values="none;inline;none;none"/></g><g display="none" id="Layer160_0_FILL"><path fill="#FFF" stroke="none" d="M103.75 15.55L81.85 7.4 59.9 15.55 59.9 20.2 81.85 28.35 103.75 20.2 103.75 15.55Z"/><path fill="#F9C1DA" stroke="none" d="M82.2 11.75L82.2 7.4 81.45 7.4 81.45 11.75 59.8 19.85 60.05 20.55 81.85 12.4 103.6 20.55 103.9 19.85 82.2 11.75Z"/><path fill="#F26AA6" stroke="none" d="M104.25 20.55L104.25 15.2 81.85 6.85 59.4 15.2 59.4 20.55 81.85 28.9 104.25 20.55M103.25 16.3L103.25 19.85 82.35 27.65 82.35 24.1 103.25 16.3M102.3 15.55L81.85 23.2 61.35 15.55 81.85 7.9 102.3 15.55M81.35 24.1L81.35 27.65 60.4 19.85 60.4 16.3 81.35 24.1Z"/><animate attributeName="display" repeatCount="indefinite" dur="1.2s" keyTimes="0;.5;.833;1" values="none;inline;none;none"/></g><g display="none" id="Layer157_0_FILL"><path fill="#FCECF3" stroke="none" d="M103.75 15.55L81.85 7.4 59.9 15.55 59.9 20.2 81.85 28.35 103.75 20.2 103.75 15.55Z"/><path fill="#F9C1DA" stroke="none" d="M82.2 11.75L82.2 7.4 81.45 7.4 81.45 11.75 59.8 19.85 60.05 20.55 81.85 12.4 103.6 20.55 103.9 19.85 82.2 11.75Z"/><path fill="#F26AA6" stroke="none" d="M104.25 20.55L104.25 15.2 81.85 6.85 59.4 15.2 59.4 20.55 81.85 28.9 104.25 20.55M103.25 16.3L103.25 19.85 82.35 27.65 82.35 24.1 103.25 16.3M81.85 7.9L102.3 15.55 81.85 23.2 61.35 15.55 81.85 7.9M81.35 24.1L81.35 27.65 60.4 19.85 60.4 16.3 81.35 24.1Z"/><animate attributeName="display" repeatCount="indefinite" dur="1.2s" keyTimes="0;.417;.5;1" values="none;inline;none;none"/></g><g display="none" id="Layer154_0_FILL"><path fill="#FCECF3" stroke="none" d="M103.75 15.55L81.85 7.4 59.9 15.55 59.9 20.2 81.85 28.35 103.75 20.2 103.75 15.55Z"/><path fill="#F9C1DA" stroke="none" d="M82.2 11.75L82.2 7.4 81.45 7.4 81.45 11.75 59.8 19.85 60.05 20.55 81.85 12.4 103.6 20.55 103.9 19.85 82.2 11.75Z"/><path fill="#D82071" stroke="none" d="M104.25 20.55L104.25 15.2 81.85 6.85 59.4 15.2 59.4 20.55 81.85 28.9 104.25 20.55M103.25 16.3L103.25 19.85 82.35 27.65 82.35 24.1 103.25 16.3M81.85 7.9L102.3 15.55 81.85 23.2 61.35 15.55 81.85 7.9M81.35 24.1L81.35 27.65 60.4 19.85 60.4 16.3 81.35 24.1Z"/><animate attributeName="display" repeatCount="indefinite" dur="1.2s" keyTimes="0;.333;.417;1" values="none;inline;none;none"/></g><g id="Layer151_0_FILL"><path fill="#FFF" stroke="none" d="M103.75 15.55L81.85 7.4 59.9 15.55 59.9 20.2 81.85 28.35 103.75 20.2 103.75 15.55Z"/><path fill="#CCEFFC" stroke="none" d="M82.2 11.75L82.2 7.4 81.45 7.4 81.45 11.75 59.8 19.85 60.05 20.55 81.85 12.4 103.6 20.55 103.9 19.85 82.2 11.75Z"/><path fill="#82D4F2" stroke="none" d="M104.25 20.55L104.25 15.2 81.85 6.85 59.4 15.2 59.4 20.55 81.85 28.9 104.25 20.55M103.25 16.3L103.25 19.85 82.35 27.65 82.35 24.1 103.25 16.3M102.3 15.55L81.85 23.2 61.35 15.55 81.85 7.9 102.3 15.55M81.35 24.1L81.35 27.65 60.4 19.85 60.4 16.3 81.35 24.1Z"/><animate attributeName="display" repeatCount="indefinite" dur="1.2s" keyTimes="0;.333;1" values="inline;none;none"/></g><g display="none" id="Layer148_0_FILL"><path fill="#F3FBFE" stroke="none" d="M130.25 30.3L130.25 25.65 108.35 17.5 86.4 25.65 86.4 30.3 108.35 38.45 130.25 30.3Z"/><path fill="#CCEFFC" stroke="none" d="M130.15 30.65L130.45 29.95 108.75 21.85 108.75 17.5 108 17.5 108 21.85 86.35 29.95 86.6 30.65 108.4 22.5 130.15 30.65Z"/><path fill="#00ABE8" stroke="none" d="M130.75 30.65L130.75 25.3 108.35 16.95 85.9 25.3 85.9 30.65 108.35 39 130.75 30.65M129.75 26.4L129.75 29.95 108.85 37.75 108.85 34.2 129.75 26.4M86.9 29.95L86.9 26.4 107.85 34.2 107.85 37.75 86.9 29.95M87.85 25.65L108.35 18 128.8 25.65 108.35 33.3 87.85 25.65Z"/><animate attributeName="display" repeatCount="indefinite" dur="1.2s" keyTimes="0;.917;1" values="none;inline;inline"/></g><g display="none" id="Layer145_0_FILL"><path fill="#FFF" stroke="none" d="M130.25 30.3L130.25 25.65 108.35 17.5 86.4 25.65 86.4 30.3 108.35 38.45 130.25 30.3Z"/><path fill="#F9C1DA" stroke="none" d="M130.15 30.65L130.45 29.95 108.75 21.85 108.75 17.5 108 17.5 108 21.85 86.35 29.95 86.6 30.65 108.4 22.5 130.15 30.65Z"/><path fill="#F26AA6" stroke="none" d="M130.75 30.65L130.75 25.3 108.35 16.95 85.9 25.3 85.9 30.65 108.35 39 130.75 30.65M129.75 26.4L129.75 29.95 108.85 37.75 108.85 34.2 129.75 26.4M86.9 29.95L86.9 26.4 107.85 34.2 107.85 37.75 86.9 29.95M87.85 25.65L108.35 18 128.8 25.65 108.35 33.3 87.85 25.65Z"/><animate attributeName="display" repeatCount="indefinite" dur="1.2s" keyTimes="0;.5;.917;1" values="none;inline;none;none"/></g><g display="none" id="Layer142_0_FILL"><path fill="#FCECF3" stroke="none" d="M130.25 30.3L130.25 25.65 108.35 17.5 86.4 25.65 86.4 30.3 108.35 38.45 130.25 30.3Z"/><path fill="#F9C1DA" stroke="none" d="M130.15 30.65L130.45 29.95 108.75 21.85 108.75 17.5 108 17.5 108 21.85 86.35 29.95 86.6 30.65 108.4 22.5 130.15 30.65Z"/><path fill="#F26AA6" stroke="none" d="M130.75 30.65L130.75 25.3 108.35 16.95 85.9 25.3 85.9 30.65 108.35 39 130.75 30.65M129.75 26.4L129.75 29.95 108.85 37.75 108.85 34.2 129.75 26.4M86.9 29.95L86.9 26.4 107.85 34.2 107.85 37.75 86.9 29.95M87.85 25.65L108.35 18 128.8 25.65 108.35 33.3 87.85 25.65Z"/><animate attributeName="display" repeatCount="indefinite" dur="1.2s" keyTimes="0;.417;.5;1" values="none;inline;none;none"/></g><g display="none" id="Layer139_0_FILL"><path fill="#FCECF3" stroke="none" d="M130.25 30.3L130.25 25.65 108.35 17.5 86.4 25.65 86.4 30.3 108.35 38.45 130.25 30.3Z"/><path fill="#F9C1DA" stroke="none" d="M130.15 30.65L130.45 29.95 108.75 21.85 108.75 17.5 108 17.5 108 21.85 86.35 29.95 86.6 30.65 108.4 22.5 130.15 30.65Z"/><path fill="#D82071" stroke="none" d="M130.75 30.65L130.75 25.3 108.35 16.95 85.9 25.3 85.9 30.65 108.35 39 130.75 30.65M129.75 26.4L129.75 29.95 108.85 37.75 108.85 34.2 129.75 26.4M86.9 29.95L86.9 26.4 107.85 34.2 107.85 37.75 86.9 29.95M87.85 25.65L108.35 18 128.8 25.65 108.35 33.3 87.85 25.65Z"/><animate attributeName="display" repeatCount="indefinite" dur="1.2s" keyTimes="0;.333;.417;1" values="none;inline;none;none"/></g><g display="none" id="Layer136_0_FILL"><path fill="#FFF" stroke="none" d="M130.25 30.3L130.25 25.65 108.35 17.5 86.4 25.65 86.4 30.3 108.35 38.45 130.25 30.3Z"/><path fill="#CCEFFC" stroke="none" d="M130.15 30.65L130.45 29.95 108.75 21.85 108.75 17.5 108 17.5 108 21.85 86.35 29.95 86.6 30.65 108.4 22.5 130.15 30.65Z"/><path fill="#82D4F2" stroke="none" d="M130.75 30.65L130.75 25.3 108.35 16.95 85.9 25.3 85.9 30.65 108.35 39 130.75 30.65M129.75 26.4L129.75 29.95 108.85 37.75 108.85 34.2 129.75 26.4M86.9 29.95L86.9 26.4 107.85 34.2 107.85 37.75 86.9 29.95M87.85 25.65L108.35 18 128.8 25.65 108.35 33.3 87.85 25.65Z"/><animate attributeName="display" repeatCount="indefinite" dur="1.2s" keyTimes="0;.083;.333;1" values="none;inline;none;none"/></g><g id="Layer133_0_FILL"><path fill="#F3FBFE" stroke="none" d="M130.25 30.3L130.25 25.65 108.35 17.5 86.4 25.65 86.4 30.3 108.35 38.45 130.25 30.3Z"/><path fill="#CCEFFC" stroke="none" d="M130.15 30.65L130.45 29.95 108.75 21.85 108.75 17.5 108 17.5 108 21.85 86.35 29.95 86.6 30.65 108.4 22.5 130.15 30.65Z"/><path fill="#82D4F2" stroke="none" d="M130.75 30.65L130.75 25.3 108.35 16.95 85.9 25.3 85.9 30.65 108.35 39 130.75 30.65M129.75 26.4L129.75 29.95 108.85 37.75 108.85 34.2 129.75 26.4M86.9 29.95L86.9 26.4 107.85 34.2 107.85 37.75 86.9 29.95M87.85 25.65L108.35 18 128.8 25.65 108.35 33.3 87.85 25.65Z"/><animate attributeName="display" repeatCount="indefinite" dur="1.2s" keyTimes="0;.083;1" values="inline;none;none"/></g><g display="none" id="Layer130_0_FILL"><path fill="#F3FBFE" stroke="none" d="M77.15 25.65L55.25 17.5 33.3 25.65 33.3 30.3 55.25 38.45 77.15 30.3 77.15 25.65Z"/><path fill="#CCEFFC" stroke="none" d="M55.6 21.85L55.6 17.5 54.85 17.5 54.85 21.85 33.2 29.95 33.45 30.65 55.25 22.5 77 30.65 77.3 29.95 55.6 21.85Z"/><path fill="#82D4F2" stroke="none" d="M77.65 30.65L77.65 25.3 55.25 16.95 32.8 25.3 32.8 30.65 55.25 39 77.65 30.65M54.75 34.2L54.75 37.75 33.8 29.95 33.8 26.4 54.75 34.2M55.75 37.75L55.75 34.2 76.65 26.4 76.65 29.95 55.75 37.75M75.7 25.65L55.25 33.3 34.75 25.65 55.25 18 75.7 25.65Z"/><animate attributeName="display" repeatCount="indefinite" dur="1.2s" keyTimes="0;.917;1" values="none;inline;inline"/></g><g display="none" id="Layer127_0_FILL"><path fill="#F3FBFE" stroke="none" d="M77.15 25.65L55.25 17.5 33.3 25.65 33.3 30.3 55.25 38.45 77.15 30.3 77.15 25.65Z"/><path fill="#CCEFFC" stroke="none" d="M55.6 21.85L55.6 17.5 54.85 17.5 54.85 21.85 33.2 29.95 33.45 30.65 55.25 22.5 77 30.65 77.3 29.95 55.6 21.85Z"/><path fill="#00ABE8" stroke="none" d="M77.65 30.65L77.65 25.3 55.25 16.95 32.8 25.3 32.8 30.65 55.25 39 77.65 30.65M54.75 34.2L54.75 37.75 33.8 29.95 33.8 26.4 54.75 34.2M55.75 37.75L55.75 34.2 76.65 26.4 76.65 29.95 55.75 37.75M75.7 25.65L55.25 33.3 34.75 25.65 55.25 18 75.7 25.65Z"/><animate attributeName="display" repeatCount="indefinite" dur="1.2s" keyTimes="0;.833;.917;1" values="none;inline;none;none"/></g><g display="none" id="Layer124_0_FILL"><path fill="#FFF" stroke="none" d="M77.15 25.65L55.25 17.5 33.3 25.65 33.3 30.3 55.25 38.45 77.15 30.3 77.15 25.65Z"/><path fill="#F9C1DA" stroke="none" d="M55.6 21.85L55.6 17.5 54.85 17.5 54.85 21.85 33.2 29.95 33.45 30.65 55.25 22.5 77 30.65 77.3 29.95 55.6 21.85Z"/><path fill="#F26AA6" stroke="none" d="M77.65 30.65L77.65 25.3 55.25 16.95 32.8 25.3 32.8 30.65 55.25 39 77.65 30.65M54.75 34.2L54.75 37.75 33.8 29.95 33.8 26.4 54.75 34.2M55.75 37.75L55.75 34.2 76.65 26.4 76.65 29.95 55.75 37.75M75.7 25.65L55.25 33.3 34.75 25.65 55.25 18 75.7 25.65Z"/><animate attributeName="display" repeatCount="indefinite" dur="1.2s" keyTimes="0;.583;.833;1" values="none;inline;none;none"/></g><g display="none" id="Layer121_0_FILL"><path fill="#FCECF3" stroke="none" d="M77.15 25.65L55.25 17.5 33.3 25.65 33.3 30.3 55.25 38.45 77.15 30.3 77.15 25.65Z"/><path fill="#F9C1DA" stroke="none" d="M55.6 21.85L55.6 17.5 54.85 17.5 54.85 21.85 33.2 29.95 33.45 30.65 55.25 22.5 77 30.65 77.3 29.95 55.6 21.85Z"/><path fill="#F26AA6" stroke="none" d="M77.65 30.65L77.65 25.3 55.25 16.95 32.8 25.3 32.8 30.65 55.25 39 77.65 30.65M54.75 34.2L54.75 37.75 33.8 29.95 33.8 26.4 54.75 34.2M55.75 37.75L55.75 34.2 76.65 26.4 76.65 29.95 55.75 37.75M75.7 25.65L55.25 33.3 34.75 25.65 55.25 18 75.7 25.65Z"/><animate attributeName="display" repeatCount="indefinite" dur="1.2s" keyTimes="0;.5;.583;1" values="none;inline;none;none"/></g><g display="none" id="Layer118_0_FILL"><path fill="#FCECF3" stroke="none" d="M77.15 25.65L55.25 17.5 33.3 25.65 33.3 30.3 55.25 38.45 77.15 30.3 77.15 25.65Z"/><path fill="#F9C1DA" stroke="none" d="M55.6 21.85L55.6 17.5 54.85 17.5 54.85 21.85 33.2 29.95 33.45 30.65 55.25 22.5 77 30.65 77.3 29.95 55.6 21.85Z"/><path fill="#D82071" stroke="none" d="M77.65 30.65L77.65 25.3 55.25 16.95 32.8 25.3 32.8 30.65 55.25 39 77.65 30.65M54.75 34.2L54.75 37.75 33.8 29.95 33.8 26.4 54.75 34.2M55.75 37.75L55.75 34.2 76.65 26.4 76.65 29.95 55.75 37.75M75.7 25.65L55.25 33.3 34.75 25.65 55.25 18 75.7 25.65Z"/><animate attributeName="display" repeatCount="indefinite" dur="1.2s" keyTimes="0;.417;.5;1" values="none;inline;none;none"/></g><g id="Layer115_0_FILL"><path fill="#FFF" stroke="none" d="M77.15 25.65L55.25 17.5 33.3 25.65 33.3 30.3 55.25 38.45 77.15 30.3 77.15 25.65Z"/><path fill="#CCEFFC" stroke="none" d="M55.6 21.85L55.6 17.5 54.85 17.5 54.85 21.85 33.2 29.95 33.45 30.65 55.25 22.5 77 30.65 77.3 29.95 55.6 21.85Z"/><path fill="#82D4F2" stroke="none" d="M77.65 30.65L77.65 25.3 55.25 16.95 32.8 25.3 32.8 30.65 55.25 39 77.65 30.65M55.75 37.75L55.75 34.2 76.65 26.4 76.65 29.95 55.75 37.75M54.75 34.2L54.75 37.75 33.8 29.95 33.8 26.4 54.75 34.2M75.7 25.65L55.25 33.3 34.75 25.65 55.25 18 75.7 25.65Z"/><animate attributeName="display" repeatCount="indefinite" dur="1.2s" keyTimes="0;.417;1" values="inline;none;none"/></g><g display="none" id="Layer109_0_FILL"><path fill="#FFF" stroke="none" d="M156.8 36L134.9 27.8 113 36 113 40.6 134.9 48.8 156.8 40.6 156.8 36Z"/><path fill="#F9C1DA" stroke="none" d="M135.3 32.1L135.3 27.75 134.55 27.75 134.55 32.1 112.85 40.2 113.15 40.9 134.9 32.75 156.7 40.9 156.95 40.2 135.3 32.1Z"/><path fill="#F26AA6" stroke="none" d="M157.35 40.95L157.35 35.65 134.9 27.25 112.5 35.65 112.5 40.95 134.9 49.3 157.35 40.95M135.4 48.05L135.4 44.5 156.3 36.7 156.3 40.25 135.4 48.05M134.4 44.5L134.4 48.05 113.5 40.25 113.5 36.7 134.4 44.5M155.4 36L134.9 43.65 114.4 36 134.9 28.35 155.4 36Z"/><animate attributeName="display" repeatCount="indefinite" dur="1.2s" keyTimes="0;.5;1" values="none;inline;inline"/></g><g display="none" id="Layer106_0_FILL"><path fill="#FCECF3" stroke="none" d="M156.8 36L134.9 27.8 113 36 113 40.6 134.9 48.8 156.8 40.6 156.8 36Z"/><path fill="#F9C1DA" stroke="none" d="M135.3 32.1L135.3 27.75 134.55 27.75 134.55 32.1 112.85 40.2 113.15 40.9 134.9 32.75 156.7 40.9 156.95 40.2 135.3 32.1Z"/><path fill="#F26AA6" stroke="none" d="M157.35 40.95L157.35 35.65 134.9 27.25 112.5 35.65 112.5 40.95 134.9 49.3 157.35 40.95M135.4 48.05L135.4 44.5 156.3 36.7 156.3 40.25 135.4 48.05M134.4 44.5L134.4 48.05 113.5 40.25 113.5 36.7 134.4 44.5M155.4 36L134.9 43.65 114.4 36 134.9 28.35 155.4 36Z"/><animate attributeName="display" repeatCount="indefinite" dur="1.2s" keyTimes="0;.417;.5;1" values="none;inline;none;none"/></g><g display="none" id="Layer103_0_FILL"><path fill="#FCECF3" stroke="none" d="M156.8 36L134.9 27.8 113 36 113 40.6 134.9 48.8 156.8 40.6 156.8 36Z"/><path fill="#F9C1DA" stroke="none" d="M135.3 32.1L135.3 27.75 134.55 27.75 134.55 32.1 112.85 40.2 113.15 40.9 134.9 32.75 156.7 40.9 156.95 40.2 135.3 32.1Z"/><path fill="#D82071" stroke="none" d="M157.35 40.95L157.35 35.65 134.9 27.25 112.5 35.65 112.5 40.95 134.9 49.3 157.35 40.95M135.4 48.05L135.4 44.5 156.3 36.7 156.3 40.25 135.4 48.05M134.4 44.5L134.4 48.05 113.5 40.25 113.5 36.7 134.4 44.5M155.4 36L134.9 43.65 114.4 36 134.9 28.35 155.4 36Z"/><animate attributeName="display" repeatCount="indefinite" dur="1.2s" keyTimes="0;.333;.417;1" values="none;inline;none;none"/></g><g display="none" id="Layer100_0_FILL"><path fill="#FFF" stroke="none" d="M156.8 36L134.9 27.8 113 36 113 40.6 134.9 48.8 156.8 40.6 156.8 36Z"/><path fill="#CCEFFC" stroke="none" d="M135.3 32.1L135.3 27.75 134.55 27.75 134.55 32.1 112.85 40.2 113.15 40.9 134.9 32.75 156.7 40.9 156.95 40.2 135.3 32.1Z"/><path fill="#82D4F2" stroke="none" d="M157.35 40.95L157.35 35.65 134.9 27.25 112.5 35.65 112.5 40.95 134.9 49.3 157.35 40.95M135.4 48.05L135.4 44.5 156.3 36.7 156.3 40.25 135.4 48.05M134.4 44.5L134.4 48.05 113.5 40.25 113.5 36.7 134.4 44.5M155.4 36L134.9 43.65 114.4 36 134.9 28.35 155.4 36Z"/><animate attributeName="display" repeatCount="indefinite" dur="1.2s" keyTimes="0;.167;.333;1" values="none;inline;none;none"/></g><g display="none" id="Layer97_0_FILL"><path fill="#F3FBFE" stroke="none" d="M156.8 36L134.9 27.8 113 36 113 40.6 134.9 48.8 156.8 40.6 156.8 36Z"/><path fill="#CCEFFC" stroke="none" d="M135.3 32.1L135.3 27.75 134.55 27.75 134.55 32.1 112.85 40.2 113.15 40.9 134.9 32.75 156.7 40.9 156.95 40.2 135.3 32.1Z"/><path fill="#82D4F2" stroke="none" d="M157.35 40.95L157.35 35.65 134.9 27.25 112.5 35.65 112.5 40.95 134.9 49.3 157.35 40.95M135.4 48.05L135.4 44.5 156.3 36.7 156.3 40.25 135.4 48.05M134.4 44.5L134.4 48.05 113.5 40.25 113.5 36.7 134.4 44.5M155.4 36L134.9 43.65 114.4 36 134.9 28.35 155.4 36Z"/><animate attributeName="display" repeatCount="indefinite" dur="1.2s" keyTimes="0;.083;.167;1" values="none;inline;none;none"/></g><g id="Layer94_0_FILL"><path fill="#F3FBFE" stroke="none" d="M156.8 36L134.9 27.8 113 36 113 40.6 134.9 48.8 156.8 40.6 156.8 36Z"/><path fill="#CCEFFC" stroke="none" d="M135.3 32.1L135.3 27.75 134.55 27.75 134.55 32.1 112.85 40.2 113.15 40.9 134.9 32.75 156.7 40.9 156.95 40.2 135.3 32.1Z"/><path fill="#00ABE8" stroke="none" d="M157.35 40.95L157.35 35.65 134.9 27.25 112.5 35.65 112.5 40.95 134.9 49.3 157.35 40.95M135.4 48.05L135.4 44.5 156.3 36.7 156.3 40.25 135.4 48.05M134.4 44.5L134.4 48.05 113.5 40.25 113.5 36.7 134.4 44.5M155.4 36L134.9 43.65 114.4 36 134.9 28.35 155.4 36Z"/><animate attributeName="display" repeatCount="indefinite" dur="1.2s" keyTimes="0;.083;1" values="inline;none;none"/></g><g display="none" id="Layer91_0_FILL"><path fill="#F3FBFE" stroke="none" d="M103.7 35.95L81.8 27.8 59.85 35.95 59.85 40.6 81.8 48.75 103.7 40.6 103.7 35.95Z"/><path fill="#CCEFFC" stroke="none" d="M82.15 32.1L82.15 27.75 81.4 27.75 81.4 32.1 59.75 40.2 60 40.9 81.8 32.75 103.55 40.9 103.85 40.2 82.15 32.1Z"/><path fill="#00ABE8" stroke="none" d="M104.2 40.95L104.2 35.6 81.8 27.25 59.35 35.6 59.35 40.95 81.8 49.3 104.2 40.95M81.3 44.5L81.3 48.05 60.35 40.25 60.35 36.7 81.3 44.5M82.3 48.05L82.3 44.5 103.2 36.7 103.2 40.25 82.3 48.05M102.25 35.95L81.8 43.6 61.3 35.95 81.8 28.3 102.25 35.95Z"/><animate attributeName="display" repeatCount="indefinite" dur="1.2s" keyTimes="0;.917;1" values="none;inline;inline"/></g><g display="none" id="Layer88_0_FILL"><path fill="#FFF" stroke="none" d="M103.7 35.95L81.8 27.8 59.85 35.95 59.85 40.6 81.8 48.75 103.7 40.6 103.7 35.95Z"/><path fill="#F9C1DA" stroke="none" d="M82.15 32.1L82.15 27.75 81.4 27.75 81.4 32.1 59.75 40.2 60 40.9 81.8 32.75 103.55 40.9 103.85 40.2 82.15 32.1Z"/><path fill="#F26AA6" stroke="none" d="M104.2 40.95L104.2 35.6 81.8 27.25 59.35 35.6 59.35 40.95 81.8 49.3 104.2 40.95M81.3 44.5L81.3 48.05 60.35 40.25 60.35 36.7 81.3 44.5M82.3 48.05L82.3 44.5 103.2 36.7 103.2 40.25 82.3 48.05M102.25 35.95L81.8 43.6 61.3 35.95 81.8 28.3 102.25 35.95Z"/><animate attributeName="display" repeatCount="indefinite" dur="1.2s" keyTimes="0;.583;.917;1" values="none;inline;none;none"/></g><g display="none" id="Layer85_0_FILL"><path fill="#FCECF3" stroke="none" d="M103.7 35.95L81.8 27.8 59.85 35.95 59.85 40.6 81.8 48.75 103.7 40.6 103.7 35.95Z"/><path fill="#F9C1DA" stroke="none" d="M82.15 32.1L82.15 27.75 81.4 27.75 81.4 32.1 59.75 40.2 60 40.9 81.8 32.75 103.55 40.9 103.85 40.2 82.15 32.1Z"/><path fill="#F26AA6" stroke="none" d="M104.2 40.95L104.2 35.6 81.8 27.25 59.35 35.6 59.35 40.95 81.8 49.3 104.2 40.95M81.3 44.5L81.3 48.05 60.35 40.25 60.35 36.7 81.3 44.5M82.3 48.05L82.3 44.5 103.2 36.7 103.2 40.25 82.3 48.05M102.25 35.95L81.8 43.6 61.3 35.95 81.8 28.3 102.25 35.95Z"/><animate attributeName="display" repeatCount="indefinite" dur="1.2s" keyTimes="0;.5;.583;1" values="none;inline;none;none"/></g><g display="none" id="Layer82_0_FILL"><path fill="#FCECF3" stroke="none" d="M103.7 35.95L81.8 27.8 59.85 35.95 59.85 40.6 81.8 48.75 103.7 40.6 103.7 35.95Z"/><path fill="#F9C1DA" stroke="none" d="M82.15 32.1L82.15 27.75 81.4 27.75 81.4 32.1 59.75 40.2 60 40.9 81.8 32.75 103.55 40.9 103.85 40.2 82.15 32.1Z"/><path fill="#D82071" stroke="none" d="M104.2 40.95L104.2 35.6 81.8 27.25 59.35 35.6 59.35 40.95 81.8 49.3 104.2 40.95M81.3 44.5L81.3 48.05 60.35 40.25 60.35 36.7 81.3 44.5M82.3 48.05L82.3 44.5 103.2 36.7 103.2 40.25 82.3 48.05M102.25 35.95L81.8 43.6 61.3 35.95 81.8 28.3 102.25 35.95Z"/><animate attributeName="display" repeatCount="indefinite" dur="1.2s" keyTimes="0;.417;.5;1" values="none;inline;none;none"/></g><g display="none" id="Layer79_0_FILL"><path fill="#FFF" stroke="none" d="M103.7 35.95L81.8 27.8 59.85 35.95 59.85 40.6 81.8 48.75 103.7 40.6 103.7 35.95Z"/><path fill="#CCEFFC" stroke="none" d="M82.15 32.1L82.15 27.75 81.4 27.75 81.4 32.1 59.75 40.2 60 40.9 81.8 32.75 103.55 40.9 103.85 40.2 82.15 32.1Z"/><path fill="#82D4F2" stroke="none" d="M104.2 40.95L104.2 35.6 81.8 27.25 59.35 35.6 59.35 40.95 81.8 49.3 104.2 40.95M82.3 48.05L82.3 44.5 103.2 36.7 103.2 40.25 82.3 48.05M81.3 44.5L81.3 48.05 60.35 40.25 60.35 36.7 81.3 44.5M102.25 35.95L81.8 43.6 61.3 35.95 81.8 28.3 102.25 35.95Z"/><animate attributeName="display" repeatCount="indefinite" dur="1.2s" keyTimes="0;.083;.417;1" values="none;inline;none;none"/></g><g id="Layer76_0_FILL"><path fill="#F3FBFE" stroke="none" d="M81.8 48.75L103.7 40.6 103.7 35.95 81.8 27.8 59.85 35.95 59.85 40.6 81.8 48.75Z"/><path fill="#CCEFFC" stroke="none" d="M82.15 32.1L82.15 27.75 81.4 27.75 81.4 32.1 59.75 40.2 60 40.9 81.8 32.75 103.55 40.9 103.85 40.2 82.15 32.1Z"/><path fill="#82D4F2" stroke="none" d="M104.2 40.95L104.2 35.6 81.8 27.25 59.35 35.6 59.35 40.95 81.8 49.3 104.2 40.95M82.3 48.05L82.3 44.5 103.2 36.7 103.2 40.25 82.3 48.05M81.3 44.5L81.3 48.05 60.35 40.25 60.35 36.7 81.3 44.5M102.25 35.95L81.8 43.6 61.3 35.95 81.8 28.3 102.25 35.95Z"/><animate attributeName="display" repeatCount="indefinite" dur="1.2s" keyTimes="0;.083;1" values="inline;none;none"/></g><g display="none" id="Layer73_0_FILL"><path fill="#F3FBFE" stroke="none" d="M50.7 40.6L50.7 35.95 28.8 27.8 6.85 35.95 6.85 40.6 28.8 48.75 50.7 40.6Z"/><path fill="#CCEFFC" stroke="none" d="M50.55 40.9L50.85 40.2 29.15 32.1 29.15 27.75 28.4 27.75 28.4 32.1 6.75 40.2 7 40.9 28.8 32.75 50.55 40.9Z"/><path fill="#82D4F2" stroke="none" d="M51.2 40.95L51.2 35.6 28.8 27.25 6.35 35.6 6.35 40.95 28.8 49.3 51.2 40.95M50.2 36.7L50.2 40.25 29.3 48.05 29.3 44.5 50.2 36.7M7.35 40.25L7.35 36.7 28.3 44.5 28.3 48.05 7.35 40.25M8.3 35.95L28.8 28.3 49.25 35.95 28.8 43.6 8.3 35.95Z"/><animate attributeName="display" repeatCount="indefinite" dur="1.2s" keyTimes="0;.917;1" values="none;inline;inline"/></g><g display="none" id="Layer70_0_FILL"><path fill="#F3FBFE" stroke="none" d="M50.7 40.6L50.7 35.95 28.8 27.8 6.85 35.95 6.85 40.6 28.8 48.75 50.7 40.6Z"/><path fill="#CCEFFC" stroke="none" d="M50.55 40.9L50.85 40.2 29.15 32.1 29.15 27.75 28.4 27.75 28.4 32.1 6.75 40.2 7 40.9 28.8 32.75 50.55 40.9Z"/><path fill="#00ABE8" stroke="none" d="M51.2 40.95L51.2 35.6 28.8 27.25 6.35 35.6 6.35 40.95 28.8 49.3 51.2 40.95M50.2 36.7L50.2 40.25 29.3 48.05 29.3 44.5 50.2 36.7M7.35 40.25L7.35 36.7 28.3 44.5 28.3 48.05 7.35 40.25M8.3 35.95L28.8 28.3 49.25 35.95 28.8 43.6 8.3 35.95Z"/><animate attributeName="display" repeatCount="indefinite" dur="1.2s" keyTimes="0;.833;.917;1" values="none;inline;none;none"/></g><g display="none" id="Layer67_0_FILL"><path fill="#FFF" stroke="none" d="M50.7 40.6L50.7 35.95 28.8 27.8 6.85 35.95 6.85 40.6 28.8 48.75 50.7 40.6Z"/><path fill="#F9C1DA" stroke="none" d="M50.55 40.9L50.85 40.2 29.15 32.1 29.15 27.75 28.4 27.75 28.4 32.1 6.75 40.2 7 40.9 28.8 32.75 50.55 40.9Z"/><path fill="#F26AA6" stroke="none" d="M51.2 40.95L51.2 35.6 28.8 27.25 6.35 35.6 6.35 40.95 28.8 49.3 51.2 40.95M50.2 36.7L50.2 40.25 29.3 48.05 29.3 44.5 50.2 36.7M7.35 40.25L7.35 36.7 28.3 44.5 28.3 48.05 7.35 40.25M8.3 35.95L28.8 28.3 49.25 35.95 28.8 43.6 8.3 35.95Z"/><animate attributeName="display" repeatCount="indefinite" dur="1.2s" keyTimes="0;.667;.833;1" values="none;inline;none;none"/></g><g display="none" id="Layer64_0_FILL"><path fill="#FCECF3" stroke="none" d="M50.7 40.6L50.7 35.95 28.8 27.8 6.85 35.95 6.85 40.6 28.8 48.75 50.7 40.6Z"/><path fill="#F9C1DA" stroke="none" d="M50.55 40.9L50.85 40.2 29.15 32.1 29.15 27.75 28.4 27.75 28.4 32.1 6.75 40.2 7 40.9 28.8 32.75 50.55 40.9Z"/><path fill="#F26AA6" stroke="none" d="M51.2 40.95L51.2 35.6 28.8 27.25 6.35 35.6 6.35 40.95 28.8 49.3 51.2 40.95M50.2 36.7L50.2 40.25 29.3 48.05 29.3 44.5 50.2 36.7M7.35 40.25L7.35 36.7 28.3 44.5 28.3 48.05 7.35 40.25M8.3 35.95L28.8 28.3 49.25 35.95 28.8 43.6 8.3 35.95Z"/><animate attributeName="display" repeatCount="indefinite" dur="1.2s" keyTimes="0;.583;.667;1" values="none;inline;none;none"/></g><g display="none" id="Layer61_0_FILL"><path fill="#FCECF3" stroke="none" d="M50.7 40.6L50.7 35.95 28.8 27.8 6.85 35.95 6.85 40.6 28.8 48.75 50.7 40.6Z"/><path fill="#F9C1DA" stroke="none" d="M50.55 40.9L50.85 40.2 29.15 32.1 29.15 27.75 28.4 27.75 28.4 32.1 6.75 40.2 7 40.9 28.8 32.75 50.55 40.9Z"/><path fill="#D82071" stroke="none" d="M51.2 40.95L51.2 35.6 28.8 27.25 6.35 35.6 6.35 40.95 28.8 49.3 51.2 40.95M50.2 36.7L50.2 40.25 29.3 48.05 29.3 44.5 50.2 36.7M7.35 40.25L7.35 36.7 28.3 44.5 28.3 48.05 7.35 40.25M8.3 35.95L28.8 28.3 49.25 35.95 28.8 43.6 8.3 35.95Z"/><animate attributeName="display" repeatCount="indefinite" dur="1.2s" keyTimes="0;.5;.583;1" values="none;inline;none;none"/></g><g display="none" id="Layer58_0_FILL"><path fill="#FFF" stroke="none" d="M50.7 40.6L50.7 35.95 28.8 27.8 6.85 35.95 6.85 40.6 28.8 48.75 50.7 40.6Z"/><path fill="#CCEFFC" stroke="none" d="M50.55 40.9L50.85 40.2 29.15 32.1 29.15 27.75 28.4 27.75 28.4 32.1 6.75 40.2 7 40.9 28.8 32.75 50.55 40.9Z"/><path fill="#82D4F2" stroke="none" d="M51.2 40.95L51.2 35.6 28.8 27.25 6.35 35.6 6.35 40.95 28.8 49.3 51.2 40.95M50.2 36.7L50.2 40.25 29.3 48.05 29.3 44.5 50.2 36.7M7.35 40.25L7.35 36.7 28.3 44.5 28.3 48.05 7.35 40.25M8.3 35.95L28.8 28.3 49.25 35.95 28.8 43.6 8.3 35.95Z"/><animate attributeName="display" repeatCount="indefinite" dur="1.2s" keyTimes="0;.417;.5;1" values="none;inline;none;none"/></g><g id="Layer55_0_FILL"><path fill="#FFF" stroke="none" d="M50.7 40.6L50.7 35.95 28.8 27.8 6.85 35.95 6.85 40.6 28.8 48.75 50.7 40.6Z"/><path fill="#CCEFFC" stroke="none" d="M50.55 40.9L50.85 40.2 29.15 32.1 29.15 27.75 28.4 27.75 28.4 32.1 6.75 40.2 7 40.9 28.8 32.75 50.55 40.9Z"/><path fill="#82D4F2" stroke="none" d="M51.2 40.95L51.2 35.6 28.8 27.25 6.35 35.6 6.35 40.95 28.8 49.3 51.2 40.95M50.2 36.7L50.2 40.25 29.3 48.05 29.3 44.5 50.2 36.7M7.35 40.25L7.35 36.7 28.3 44.5 28.3 48.05 7.35 40.25M8.3 35.95L28.8 28.3 49.25 35.95 28.8 43.6 8.3 35.95Z"/><animate attributeName="display" repeatCount="indefinite" dur="1.2s" keyTimes="0;.417;1" values="inline;none;none"/></g><g display="none" id="Layer52_0_FILL"><path fill="#FFF" stroke="none" d="M108.3 37.95L86.4 46.1 86.4 50.75 108.3 58.9 130.25 50.75 130.25 46.1 108.3 37.95Z"/><path fill="#F9C1DA" stroke="none" d="M108.7 42.3L108.7 37.95 107.95 37.95 107.95 42.3 86.25 50.4 86.55 51.1 108.3 42.95 130.1 51.1 130.35 50.4 108.7 42.3Z"/><path fill="#F26AA6" stroke="none" d="M108.3 37.4L85.9 45.75 85.9 51.1 108.3 59.45 130.75 51.1 130.75 45.75 108.3 37.4M87.85 46.1L108.3 38.45 128.8 46.1 108.3 53.75 87.85 46.1M108.8 58.2L108.8 54.65 129.75 46.85 129.75 50.4 108.8 58.2M107.8 58.2L86.9 50.4 86.9 46.85 107.8 54.65 107.8 58.2Z"/><animate attributeName="display" repeatCount="indefinite" dur="1.2s" keyTimes="0;.583;1" values="none;inline;inline"/></g><g display="none" id="Layer49_0_FILL"><path fill="#FCECF3" stroke="none" d="M108.3 37.95L86.4 46.1 86.4 50.75 108.3 58.9 130.25 50.75 130.25 46.1 108.3 37.95Z"/><path fill="#F9C1DA" stroke="none" d="M108.7 42.3L108.7 37.95 107.95 37.95 107.95 42.3 86.25 50.4 86.55 51.1 108.3 42.95 130.1 51.1 130.35 50.4 108.7 42.3Z"/><path fill="#F26AA6" stroke="none" d="M108.3 37.4L85.9 45.75 85.9 51.1 108.3 59.45 130.75 51.1 130.75 45.75 108.3 37.4M87.85 46.1L108.3 38.45 128.8 46.1 108.3 53.75 87.85 46.1M107.8 58.2L86.9 50.4 86.9 46.85 107.8 54.65 107.8 58.2M108.8 58.2L108.8 54.65 129.75 46.85 129.75 50.4 108.8 58.2Z"/><animate attributeName="display" repeatCount="indefinite" dur="1.2s" keyTimes="0;.5;.583;1" values="none;inline;none;none"/></g><g display="none" id="Layer46_0_FILL"><path fill="#FCECF3" stroke="none" d="M108.3 37.95L86.4 46.1 86.4 50.75 108.3 58.9 130.25 50.75 130.25 46.1 108.3 37.95Z"/><path fill="#F9C1DA" stroke="none" d="M108.7 42.3L108.7 37.95 107.95 37.95 107.95 42.3 86.25 50.4 86.55 51.1 108.3 42.95 130.1 51.1 130.35 50.4 108.7 42.3Z"/><path fill="#D82071" stroke="none" d="M108.3 37.4L85.9 45.75 85.9 51.1 108.3 59.45 130.75 51.1 130.75 45.75 108.3 37.4M87.85 46.1L108.3 38.45 128.8 46.1 108.3 53.75 87.85 46.1M108.8 58.2L108.8 54.65 129.75 46.85 129.75 50.4 108.8 58.2M107.8 58.2L86.9 50.4 86.9 46.85 107.8 54.65 107.8 58.2Z"/><animate attributeName="display" repeatCount="indefinite" dur="1.2s" keyTimes="0;.417;.5;1" values="none;inline;none;none"/></g><g display="none" id="Layer43_0_FILL"><path fill="#FFF" stroke="none" d="M108.3 37.95L86.4 46.1 86.4 50.75 108.3 58.9 130.25 50.75 130.25 46.1 108.3 37.95Z"/><path fill="#CCEFFC" stroke="none" d="M108.7 42.3L108.7 37.95 107.95 37.95 107.95 42.3 86.25 50.4 86.55 51.1 108.3 42.95 130.1 51.1 130.35 50.4 108.7 42.3Z"/><path fill="#82D4F2" stroke="none" d="M108.3 37.4L85.9 45.75 85.9 51.1 108.3 59.45 130.75 51.1 130.75 45.75 108.3 37.4M87.85 46.1L108.3 38.45 128.8 46.1 108.3 53.75 87.85 46.1M107.8 58.2L86.9 50.4 86.9 46.85 107.8 54.65 107.8 58.2M108.8 58.2L108.8 54.65 129.75 46.85 129.75 50.4 108.8 58.2Z"/><animate attributeName="display" repeatCount="indefinite" dur="1.2s" keyTimes="0;.167;.417;1" values="none;inline;none;none"/></g><g display="none" id="Layer40_0_FILL"><path fill="#F3FBFE" stroke="none" d="M108.3 37.95L86.4 46.1 86.4 50.75 108.3 58.9 130.25 50.75 130.25 46.1 108.3 37.95Z"/><path fill="#CCEFFC" stroke="none" d="M108.7 42.3L108.7 37.95 107.95 37.95 107.95 42.3 86.25 50.4 86.55 51.1 108.3 42.95 130.1 51.1 130.35 50.4 108.7 42.3Z"/><path fill="#82D4F2" stroke="none" d="M108.3 37.4L85.9 45.75 85.9 51.1 108.3 59.45 130.75 51.1 130.75 45.75 108.3 37.4M87.85 46.1L108.3 38.45 128.8 46.1 108.3 53.75 87.85 46.1M108.8 58.2L108.8 54.65 129.75 46.85 129.75 50.4 108.8 58.2M107.8 58.2L86.9 50.4 86.9 46.85 107.8 54.65 107.8 58.2Z"/><animate attributeName="display" repeatCount="indefinite" dur="1.2s" keyTimes="0;.083;.167;1" values="none;inline;none;none"/></g><g id="Layer37_0_FILL"><path fill="#F3FBFE" stroke="none" d="M108.3 37.95L86.4 46.1 86.4 50.75 108.3 58.9 130.25 50.75 130.25 46.1 108.3 37.95Z"/><path fill="#CCEFFC" stroke="none" d="M108.7 42.3L108.7 37.95 107.95 37.95 107.95 42.3 86.25 50.4 86.55 51.1 108.3 42.95 130.1 51.1 130.35 50.4 108.7 42.3Z"/><path fill="#00ABE8" stroke="none" d="M108.3 37.4L85.9 45.75 85.9 51.1 108.3 59.45 130.75 51.1 130.75 45.75 108.3 37.4M87.85 46.1L108.3 38.45 128.8 46.1 108.3 53.75 87.85 46.1M108.8 58.2L108.8 54.65 129.75 46.85 129.75 50.4 108.8 58.2M107.8 58.2L86.9 50.4 86.9 46.85 107.8 54.65 107.8 58.2Z"/><animate attributeName="display" repeatCount="indefinite" dur="1.2s" keyTimes="0;.083;1" values="inline;none;none"/></g><g display="none" id="Layer34_0_FILL"><path fill="#F3FBFE" stroke="none" d="M77.2 46.1L55.3 37.95 33.35 46.1 33.35 50.75 55.3 58.9 77.2 50.75 77.2 46.1Z"/><path fill="#CCEFFC" stroke="none" d="M55.65 42.3L55.65 37.95 54.9 37.95 54.9 42.3 33.25 50.4 33.5 51.1 55.3 42.95 77.05 51.1 77.35 50.4 55.65 42.3Z"/><path fill="#00ABE8" stroke="none" d="M77.7 45.75L55.3 37.4 32.85 45.75 32.85 51.1 55.3 59.45 77.7 51.1 77.7 45.75M55.3 38.45L75.75 46.1 55.3 53.75 34.8 46.1 55.3 38.45M55.8 58.2L55.8 54.65 76.7 46.85 76.7 50.4 55.8 58.2M54.8 54.65L54.8 58.2 33.85 50.4 33.85 46.85 54.8 54.65Z"/><animate attributeName="display" repeatCount="indefinite" dur="1.2s" keyTimes="0;.917;1" values="none;inline;inline"/></g><g display="none" id="Layer31_0_FILL"><path fill="#FFF" stroke="none" d="M77.2 46.1L55.3 37.95 33.35 46.1 33.35 50.75 55.3 58.9 77.2 50.75 77.2 46.1Z"/><path fill="#F9C1DA" stroke="none" d="M55.65 42.3L55.65 37.95 54.9 37.95 54.9 42.3 33.25 50.4 33.5 51.1 55.3 42.95 77.05 51.1 77.35 50.4 55.65 42.3Z"/><path fill="#F26AA6" stroke="none" d="M77.7 45.75L55.3 37.4 32.85 45.75 32.85 51.1 55.3 59.45 77.7 51.1 77.7 45.75M55.3 38.45L75.75 46.1 55.3 53.75 34.8 46.1 55.3 38.45M55.8 58.2L55.8 54.65 76.7 46.85 76.7 50.4 55.8 58.2M54.8 54.65L54.8 58.2 33.85 50.4 33.85 46.85 54.8 54.65Z"/><animate attributeName="display" repeatCount="indefinite" dur="1.2s" keyTimes="0;.667;.917;1" values="none;inline;none;none"/></g><g display="none" id="Layer28_0_FILL"><path fill="#FCECF3" stroke="none" d="M77.2 46.1L55.3 37.95 33.35 46.1 33.35 50.75 55.3 58.9 77.2 50.75 77.2 46.1Z"/><path fill="#F9C1DA" stroke="none" d="M55.65 42.3L55.65 37.95 54.9 37.95 54.9 42.3 33.25 50.4 33.5 51.1 55.3 42.95 77.05 51.1 77.35 50.4 55.65 42.3Z"/><path fill="#F26AA6" stroke="none" d="M77.7 45.75L55.3 37.4 32.85 45.75 32.85 51.1 55.3 59.45 77.7 51.1 77.7 45.75M55.3 38.45L75.75 46.1 55.3 53.75 34.8 46.1 55.3 38.45M55.8 58.2L55.8 54.65 76.7 46.85 76.7 50.4 55.8 58.2M54.8 54.65L54.8 58.2 33.85 50.4 33.85 46.85 54.8 54.65Z"/><animate attributeName="display" repeatCount="indefinite" dur="1.2s" keyTimes="0;.583;.667;1" values="none;inline;none;none"/></g><g display="none" id="Layer25_0_FILL"><path fill="#FCECF3" stroke="none" d="M77.2 46.1L55.3 37.95 33.35 46.1 33.35 50.75 55.3 58.9 77.2 50.75 77.2 46.1Z"/><path fill="#F9C1DA" stroke="none" d="M55.65 42.3L55.65 37.95 54.9 37.95 54.9 42.3 33.25 50.4 33.5 51.1 55.3 42.95 77.05 51.1 77.35 50.4 55.65 42.3Z"/><path fill="#D82071" stroke="none" d="M77.7 45.75L55.3 37.4 32.85 45.75 32.85 51.1 55.3 59.45 77.7 51.1 77.7 45.75M55.3 38.45L75.75 46.1 55.3 53.75 34.8 46.1 55.3 38.45M55.8 58.2L55.8 54.65 76.7 46.85 76.7 50.4 55.8 58.2M54.8 54.65L54.8 58.2 33.85 50.4 33.85 46.85 54.8 54.65Z"/><animate attributeName="display" repeatCount="indefinite" dur="1.2s" keyTimes="0;.5;.583;1" values="none;inline;none;none"/></g><g display="none" id="Layer22_0_FILL"><path fill="#FFF" stroke="none" d="M77.2 46.1L55.3 37.95 33.35 46.1 33.35 50.75 55.3 58.9 77.2 50.75 77.2 46.1Z"/><path fill="#CCEFFC" stroke="none" d="M55.65 42.3L55.65 37.95 54.9 37.95 54.9 42.3 33.25 50.4 33.5 51.1 55.3 42.95 77.05 51.1 77.35 50.4 55.65 42.3Z"/><path fill="#82D4F2" stroke="none" d="M77.7 45.75L55.3 37.4 32.85 45.75 32.85 51.1 55.3 59.45 77.7 51.1 77.7 45.75M55.3 38.45L75.75 46.1 55.3 53.75 34.8 46.1 55.3 38.45M55.8 58.2L55.8 54.65 76.7 46.85 76.7 50.4 55.8 58.2M54.8 54.65L54.8 58.2 33.85 50.4 33.85 46.85 54.8 54.65Z"/><animate attributeName="display" repeatCount="indefinite" dur="1.2s" keyTimes="0;.083;.5;1" values="none;inline;none;none"/></g><g id="Layer19_0_FILL"><path fill="#F3FBFE" stroke="none" d="M77.15 46.1L55.25 37.95 33.3 46.1 33.3 50.75 55.25 58.9 77.15 50.75 77.15 46.1Z"/><path fill="#CCEFFC" stroke="none" d="M55.65 42.3L55.65 37.95 54.9 37.95 54.9 42.3 33.25 50.4 33.5 51.1 55.3 42.95 77.05 51.1 77.35 50.4 55.65 42.3Z"/><path fill="#82D4F2" stroke="none" d="M77.7 45.75L55.3 37.4 32.85 45.75 32.85 51.1 55.3 59.45 77.7 51.1 77.7 45.75M55.3 38.45L75.75 46.1 55.3 53.75 34.8 46.1 55.3 38.45M55.8 58.2L55.8 54.65 76.7 46.85 76.7 50.4 55.8 58.2M54.8 54.65L54.8 58.2 33.85 50.4 33.85 46.85 54.8 54.65Z"/><animate attributeName="display" repeatCount="indefinite" dur="1.2s" keyTimes="0;.083;1" values="inline;none;none"/></g><g display="none" id="Layer16_0_FILL"><path fill="#FFF" stroke="none" d="M103.75 60.85L103.75 56.25 81.8 48.05 59.9 56.25 59.9 60.85 81.8 69.05 103.75 60.85Z"/><path fill="#F9C1DA" stroke="none" d="M82.2 48.1L81.45 48.1 81.45 52.45 59.8 60.55 60.05 61.25 81.8 53.15 103.6 61.25 103.85 60.55 82.2 52.45 82.2 48.1Z"/><path fill="#F26AA6" stroke="none" d="M104.25 61.2L104.25 55.9 81.8 47.55 59.4 55.9 59.4 61.2 81.8 69.6 104.25 61.2M82.3 64.8L103.25 56.95 103.25 60.5 82.3 68.35 82.3 64.8M81.3 64.8L81.3 68.35 60.4 60.5 60.4 56.95 81.3 64.8M102.3 56.25L81.8 63.9 61.35 56.25 81.8 48.6 102.3 56.25Z"/><animate attributeName="display" repeatCount="indefinite" dur="1.2s" keyTimes="0;.667;1" values="none;inline;inline"/></g><g display="none" id="Layer13_0_FILL"><path fill="#FCECF3" stroke="none" d="M103.75 60.85L103.75 56.25 81.8 48.05 59.9 56.25 59.9 60.85 81.8 69.05 103.75 60.85Z"/><path fill="#F9C1DA" stroke="none" d="M82.2 48.1L81.45 48.1 81.45 52.45 59.8 60.55 60.05 61.25 81.8 53.15 103.6 61.25 103.85 60.55 82.2 52.45 82.2 48.1Z"/><path fill="#F26AA6" stroke="none" d="M104.25 61.2L104.25 55.9 81.8 47.55 59.4 55.9 59.4 61.2 81.8 69.6 104.25 61.2M102.3 56.25L81.8 63.9 61.35 56.25 81.8 48.6 102.3 56.25M81.3 64.8L81.3 68.35 60.4 60.5 60.4 56.95 81.3 64.8M82.3 64.8L103.25 56.95 103.25 60.5 82.3 68.35 82.3 64.8Z"/><animate attributeName="display" repeatCount="indefinite" dur="1.2s" keyTimes="0;.583;.667;1" values="none;inline;none;none"/></g><g display="none" id="Layer10_0_FILL"><path fill="#FCECF3" stroke="none" d="M103.75 60.85L103.75 56.25 81.8 48.05 59.9 56.25 59.9 60.85 81.8 69.05 103.75 60.85Z"/><path fill="#F9C1DA" stroke="none" d="M82.2 48.1L81.45 48.1 81.45 52.45 59.8 60.55 60.05 61.25 81.8 53.15 103.6 61.25 103.85 60.55 82.2 52.45 82.2 48.1Z"/><path fill="#D82071" stroke="none" d="M104.25 61.2L104.25 55.9 81.8 47.55 59.4 55.9 59.4 61.2 81.8 69.6 104.25 61.2M82.3 64.8L103.25 56.95 103.25 60.5 82.3 68.35 82.3 64.8M81.3 64.8L81.3 68.35 60.4 60.5 60.4 56.95 81.3 64.8M102.3 56.25L81.8 63.9 61.35 56.25 81.8 48.6 102.3 56.25Z"/><animate attributeName="display" repeatCount="indefinite" dur="1.2s" keyTimes="0;.5;.583;1" values="none;inline;none;none"/></g><g display="none" id="Layer7_0_FILL"><path fill="#FFF" stroke="none" d="M81.8 69.05L103.75 60.85 103.75 56.25 81.8 48.05 59.9 56.25 59.9 60.85 81.8 69.05Z"/><path fill="#CCEFFC" stroke="none" d="M82.2 48.1L81.45 48.1 81.45 52.45 59.8 60.55 60.05 61.25 81.8 53.15 103.6 61.25 103.85 60.55 82.2 52.45 82.2 48.1Z"/><path fill="#82D4F2" stroke="none" d="M81.8 69.6L104.25 61.2 104.25 55.9 81.8 47.55 59.4 55.9 59.4 61.2 81.8 69.6M82.3 64.8L103.25 56.95 103.25 60.5 82.3 68.35 82.3 64.8M102.3 56.25L81.8 63.9 61.35 56.25 81.8 48.6 102.3 56.25M81.3 64.8L81.3 68.35 60.4 60.5 60.4 56.95 81.3 64.8Z"/><animate attributeName="display" repeatCount="indefinite" dur="1.2s" keyTimes="0;.167;.5;1" values="none;inline;none;none"/></g><g display="none" id="Layer4_0_FILL"><path fill="#F3FBFE" stroke="none" d="M81.8 69.05L103.75 60.85 103.75 56.25 81.8 48.05 59.9 56.25 59.9 60.85 81.8 69.05Z"/><path fill="#CCEFFC" stroke="none" d="M82.2 48.1L81.45 48.1 81.45 52.45 59.8 60.55 60.05 61.25 81.8 53.15 103.6 61.25 103.85 60.55 82.2 52.45 82.2 48.1Z"/><path fill="#82D4F2" stroke="none" d="M81.8 69.6L104.25 61.2 104.25 55.9 81.8 47.55 59.4 55.9 59.4 61.2 81.8 69.6M82.3 64.8L103.25 56.95 103.25 60.5 82.3 68.35 82.3 64.8M102.3 56.25L81.8 63.9 61.35 56.25 81.8 48.6 102.3 56.25M81.3 64.8L81.3 68.35 60.4 60.5 60.4 56.95 81.3 64.8Z"/><animate attributeName="display" repeatCount="indefinite" dur="1.2s" keyTimes="0;.083;.167;1" values="none;inline;none;none"/></g><g id="Layer1_0_FILL"><path fill="#F3FBFE" stroke="none" d="M81.8 69.05L103.75 60.85 103.75 56.25 81.8 48.05 59.9 56.25 59.9 60.85 81.8 69.05Z"/><path fill="#CCEFFC" stroke="none" d="M82.2 48.1L81.45 48.1 81.45 52.45 59.8 60.55 60.05 61.25 81.8 53.15 103.6 61.25 103.85 60.55 82.2 52.45 82.2 48.1Z"/><path fill="#00ABE8" stroke="none" d="M81.8 69.6L104.25 61.2 104.25 55.9 81.8 47.55 59.4 55.9 59.4 61.2 81.8 69.6M82.3 64.8L103.25 56.95 103.25 60.5 82.3 68.35 82.3 64.8M102.3 56.25L81.8 63.9 61.35 56.25 81.8 48.6 102.3 56.25M81.3 64.8L81.3 68.35 60.4 60.5 60.4 56.95 81.3 64.8Z"/><animate attributeName="display" repeatCount="indefinite" dur="1.2s" keyTimes="0;.083;1" values="inline;none;none"/></g></g></svg>