<svg xmlns="http://www.w3.org/2000/svg" width="200" height="36" viewBox="0 0 200 36">
    <g fill="none" fill-rule="nonzero">
        <path fill="#ED1944" d="M32.902 0H3.384A3.38 3.38 0 0 0 .012 3.372v7.94h8.19v-1.297a1.83 1.83 0 0 1 1.826-1.825H26.27a1.825 1.825 0 0 1 1.821 1.825v1.297h8.194v-7.94A3.38 3.38 0 0 0 32.902 0zM28.08 25.485a1.825 1.825 0 0 1-1.821 1.825H10.015a1.83 1.83 0 0 1-1.825-1.825v-1.297H0v7.94a3.38 3.38 0 0 0 3.372 3.373H32.89a3.38 3.38 0 0 0 3.371-3.372v-7.94H28.08v1.296zM0 13.653h8.19v8.19H0zM28.084 13.653h8.19v8.19h-8.19z"/>
        <path fill="#4E4540" d="M199.816 24.633a2.307 2.307 0 1 0-4.615-.008 2.307 2.307 0 0 0 4.615.008zm-2.303 1.738a1.742 1.742 0 1 1-.009-3.484 1.742 1.742 0 0 1 .009 3.484z"/>
        <path fill="#4E4540" d="M198.378 24.213a.728.728 0 0 0-.192-.524.831.831 0 0 0-.615-.216h-.831v2.258h.47v-.74h.29l.416.74h.536l-.478-.832a.69.69 0 0 0 .404-.686zm-.474 0a.324.324 0 0 1-.366.341h-.345v-.682h.332c.241 0 .379.112.379.337v.004zM61.41 17.906v-.312c0-5.45-3.576-9.408-8.44-9.408-4.864 0-8.506 4.024-8.506 9.442v.316c0 5.45 3.575 9.375 8.44 9.375 4.864 0 8.506-3.996 8.506-9.413zm-13.021-.058v-.212c0-3.438 1.77-5.97 4.515-5.97 2.673 0 4.573 2.57 4.573 6.007v.208c0 3.438-1.771 6.008-4.515 6.008-2.665-.009-4.573-2.615-4.573-6.041zM80.09 17.977v-.487c0-6.215-3.472-9.304-7.156-9.304-2.635 0-4.236 1.526-5.38 3.297V8.53H63.63V32.18h3.925v-8.02c1.11 1.63 2.706 3.122 5.38 3.122 3.716 0 7.154-3.122 7.154-9.304zm-12.606-.07v-.346c0-3.613 2.012-5.903 4.374-5.903 2.361 0 4.273 2.257 4.273 5.936v.312c0 3.684-1.875 5.904-4.273 5.904-2.4 0-4.374-2.291-4.374-5.904zM97.09 24.47l-2.046-2.431c-1.218 1.18-2.495 1.945-4.237 1.945-2.399 0-4.307-1.663-4.656-4.756H97.68c.037-.557.037-1.114.037-1.355 0-5.521-2.64-9.687-7.641-9.687-4.515 0-7.846 3.958-7.846 9.48v.278c0 5.762 3.68 9.375 8.403 9.375a8.456 8.456 0 0 0 6.456-2.848zm-7.014-12.987c2.29 0 3.612 2.12 3.82 5.035h-7.778c.262-3.127 1.804-5.035 3.958-5.035zM109.246 8.186c-2.495 0-3.991 1.422-5.035 3.056v-2.71h-3.925v18.404h3.925V15.79c0-2.536 1.422-4.062 3.471-4.062 2.05 0 3.302 1.422 3.302 3.991v11.226h3.92V14.609c-.008-3.924-2.124-6.423-5.658-6.423zM130.715 21.694v-.038c0-2.88-2.154-4.199-4.99-5.483-2.153-.973-3.608-1.601-3.608-2.815v-.083c0-1.006.865-1.805 2.324-1.805 1.46 0 2.985.695 4.374 1.634l1.663-2.885a10.514 10.514 0 0 0-5.97-1.979c-3.438 0-6.078 2.079-6.078 5.384v.067c0 3.018 2.29 4.27 5.034 5.45 2.187.935 3.613 1.526 3.613 2.848v.033c0 1.148-.94 2.016-2.57 2.016-1.629 0-3.404-.802-5.071-2.153l-1.838 2.81a10.855 10.855 0 0 0 6.84 2.57c3.516.016 6.277-1.963 6.277-5.571zM142.863 26.417v-3.23a4.453 4.453 0 0 1-2.116.519c-1.247 0-1.98-.59-1.98-2.012v-9.795h4.154V8.53h-4.157V3.567h-3.925v4.964h-2.016l.648 3.368h1.368v10.593c0 3.575 2.05 4.723 4.756 4.723a6.702 6.702 0 0 0 3.268-.798zM157.888 10.198c-1.18-1.214-3.022-1.875-5.405-1.875-2.114-.012-4.2.49-6.078 1.46l1.11 3.126a10.452 10.452 0 0 1 4.444-1.114c2.495 0 3.958 1.284 3.958 3.741v.765a12.526 12.526 0 0 0-4.236-.727c-3.887 0-6.527 1.941-6.527 5.9v.174c0 3.58 2.569 5.625 5.625 5.625a5.85 5.85 0 0 0 5.105-2.603v2.258h3.854V15.51c0-2.29-.603-4.099-1.85-5.313zm-1.933 10.56c0 2.079-1.738 3.613-3.996 3.576-1.7-.034-2.985-1.077-2.985-2.91v-.071c0-1.946 1.318-3.09 3.576-3.09a8.926 8.926 0 0 1 3.405.658v1.837zM176.418 24.537l-2.116-2.602c-1.077 1.077-2.154 1.875-3.742 1.875-2.677 0-4.573-2.395-4.573-5.97v-.175c0-3.476 1.875-5.937 4.448-5.937 1.663 0 2.74.832 3.713 1.838l2.187-2.881a7.758 7.758 0 0 0-5.9-2.495c-4.827 0-8.406 3.958-8.406 9.442v.349c0 5.488 3.475 9.342 8.265 9.342a7.695 7.695 0 0 0 6.124-2.786zM188.429 17.382l-2.757 2.96 3.696 6.594h4.549z"/>
        <path fill="#4E4540" d="M189.09 8.531l-6.286 8.09V1.864h-3.92v25.073h3.92v-5.313l10.938-13.092z"/>
    </g>
</svg>
