<?xml version="1.0" encoding="UTF-8"?>
<svg width="536px" height="515px" viewBox="0 0 536 515" version="1.1" xmlns="http://www.w3.org/2000/svg" xmlns:xlink="http://www.w3.org/1999/xlink">
    <title>cube</title>
    <defs>
        <linearGradient x1="60.8292327%" y1="0%" x2="60.8292327%" y2="100%" id="linearGradient-1">
            <stop stop-color="#A86000" stop-opacity="0" offset="0%"></stop>
            <stop stop-color="#BF8700" offset="100%"></stop>
        </linearGradient>
        <linearGradient x1="60.8292327%" y1="0%" x2="60.8292327%" y2="100%" id="linearGradient-2">
            <stop stop-color="#A86000" stop-opacity="0" offset="0%"></stop>
            <stop stop-color="#BF8700" offset="100%"></stop>
        </linearGradient>
        <linearGradient x1="60.8292327%" y1="0%" x2="60.8292327%" y2="100%" id="linearGradient-3">
            <stop stop-color="#A86000" stop-opacity="0" offset="0%"></stop>
            <stop stop-color="#BF8700" offset="100%"></stop>
        </linearGradient>
        <linearGradient x1="60.8292327%" y1="0%" x2="60.8292327%" y2="100%" id="linearGradient-4">
            <stop stop-color="#A86000" stop-opacity="0" offset="0%"></stop>
            <stop stop-color="#BF8700" offset="100%"></stop>
        </linearGradient>
        <linearGradient x1="50%" y1="0%" x2="50%" y2="100%" id="linearGradient-5">
            <stop stop-color="#005977" offset="0%"></stop>
            <stop stop-color="#005977" stop-opacity="0" offset="100%"></stop>
        </linearGradient>
        <linearGradient x1="50%" y1="0%" x2="50%" y2="100%" id="linearGradient-6">
            <stop stop-color="#005977" offset="0%"></stop>
            <stop stop-color="#005977" stop-opacity="0" offset="100%"></stop>
        </linearGradient>
    </defs>
    <g id="Sign-Up-Flow-(Sandbox-v2)" stroke="none" stroke-width="1" fill="none" fill-rule="evenodd">
        <g id="00_Home-Page" transform="translate(-763.000000, -207.000000)">
            <g id="cube" transform="translate(764.000000, 208.000000)">
                <g id="Cubes-Pink" transform="translate(0.000000, 304.000000)">
                    <polygon id="Path" fill="#02022B" points="0 108.946809 169.1 172.31383 240.3 145.632979 240.3 136.739362 71.2 73.3723404 0 100.053191"></polygon>
                    <g id="cube-long-orange" transform="translate(0.000000, 73.000000)">
                        <polygon id="Path-9" fill-opacity="0.86" fill="#0D0D28" points="0 35.5955056 168.888889 99 240 72.3033708 240 63.4044944 71.1111111 0 0 26.6966292"></polygon>
                        <line x1="71.1111111" y1="8.8988764" x2="71.1111111" y2="0" id="Path-116" stroke="#6D0030" stroke-width="0.4"></line>
                        <polyline id="Path-9" stroke="#6D0030" stroke-width="0.4" points="238.888889 72.3033708 71.1111111 8.8988764 1.11111111 35.5955056"></polyline>
                        <path d="M0,26.6966292 C1.48148148,28.1797753 57.7777778,49.3146067 168.888889,90.1011236 L240,63.4044944" id="Path-59" stroke="#D82071"></path>
                        <line x1="168.888889" y1="90.1011236" x2="168.888889" y2="99" id="Path-60" stroke="#D82071"></line>
                        <polygon id="Path-9" stroke="#D82071" points="0 35.5955056 168.888889 99 240 72.3033708 240 63.4044944 71.1111111 0 0 26.6966292"></polygon>
                    </g>
                    <g id="cube-long-orange" transform="translate(98.000000, 37.000000)">
                        <polygon id="Path-9" fill-opacity="0.86" fill="#0D0D28" points="0 35.5955056 168.888889 99 240 72.3033708 240 63.4044944 71.1111111 0 0 26.6966292"></polygon>
                        <line x1="71.1111111" y1="8.8988764" x2="71.1111111" y2="0" id="Path-116" stroke="#6D0030" stroke-width="0.4"></line>
                        <polyline id="Path-9" stroke="#6D0030" stroke-width="0.4" points="238.888889 72.3033708 71.1111111 8.8988764 1.11111111 35.5955056"></polyline>
                        <path d="M0,26.6966292 C1.48148148,28.1797753 57.7777778,49.3146067 168.888889,90.1011236 L240,63.4044944" id="Path-59" stroke="#D82071"></path>
                        <line x1="168.888889" y1="90.1011236" x2="168.888889" y2="99" id="Path-60" stroke="#D82071"></line>
                        <polygon id="Path-9" stroke="#D82071" points="0 35.5955056 168.888889 99 240 72.3033708 240 63.4044944 71.1111111 0 0 26.6966292"></polygon>
                    </g>
                    <g id="cube-long-orange" transform="translate(196.000000, 0.000000)">
                        <polygon id="Path-9" fill-opacity="0.86" fill="#0D0D28" points="0 35.5955056 168.888889 99 240 72.3033708 240 63.4044944 71.1111111 0 0 26.6966292"></polygon>
                        <line x1="71.1111111" y1="8.8988764" x2="71.1111111" y2="0" id="Path-116" stroke="#6D0030" stroke-width="0.4"></line>
                        <polyline id="Path-9" stroke="#6D0030" stroke-width="0.4" points="238.888889 72.3033708 71.1111111 8.8988764 1.11111111 35.5955056"></polyline>
                        <path d="M0,26.6966292 C1.48148148,28.1797753 57.7777778,49.3146067 168.888889,90.1011236 L240,63.4044944" id="Path-59" stroke="#D82071"></path>
                        <line x1="168.888889" y1="90.1011236" x2="168.888889" y2="99" id="Path-60" stroke="#D82071"></line>
                        <polygon id="Path-9" stroke="#D82071" points="0 35.5955056 168.888889 99 240 72.3033708 240 63.4044944 71.1111111 0 0 26.6966292"></polygon>
                    </g>
                    <g id="cube-orange" transform="translate(392.000000, 73.000000)">
                        <polygon id="fill" fill="#0D0D28" points="0 35.4285714 71 62 142 35.4285714 142 26.5714286 71 0 -1.67658856e-14 26.5714286"></polygon>
                        <polygon id="Path-9" stroke="#E45480" points="0 35.4285714 71 62 142 35.4285714 142 26.5714286 71 0 -1.67658856e-14 26.5714286"></polygon>
                        <path d="M71,53.1428571 L71,62" id="Path-9" stroke="#D82071"></path>
                        <line x1="71" y1="8.85714286" x2="71" y2="0.553571429" id="Path-116" stroke="#6D0030" stroke-width="0.4"></line>
                        <polyline id="Path-9" stroke="#6D0030" stroke-width="0.4" points="142 35.4285714 71 8.85714286 0 35.4285714"></polyline>
                        <polyline id="Path-58" stroke="#D82071" points="7.88258347e-15 26.5714286 71 53.1428571 142 26.5714286"></polyline>
                        <polygon id="Path-9" stroke="#D82071" points="0 35.4285714 71 62 142 35.4285714 142 26.5714286 71 0 -1.67658856e-14 26.5714286"></polygon>
                    </g>
                    <g id="cube-orange" transform="translate(294.000000, 110.000000)">
                        <polygon id="fill" fill="#0D0D28" points="0 35.4285714 71 62 142 35.4285714 142 26.5714286 71 0 -1.67658856e-14 26.5714286"></polygon>
                        <polygon id="Path-9" stroke="#E45480" points="0 35.4285714 71 62 142 35.4285714 142 26.5714286 71 0 -1.67658856e-14 26.5714286"></polygon>
                        <path d="M71,53.1428571 L71,62" id="Path-9" stroke="#D82071"></path>
                        <line x1="71" y1="8.85714286" x2="71" y2="0.553571429" id="Path-116" stroke="#6D0030" stroke-width="0.4"></line>
                        <polyline id="Path-9" stroke="#6D0030" stroke-width="0.4" points="142 35.4285714 71 8.85714286 0 35.4285714"></polyline>
                        <polyline id="Path-58" stroke="#D82071" points="7.88258347e-15 26.5714286 71 53.1428571 142 26.5714286"></polyline>
                        <polygon id="Path-9" stroke="#D82071" points="0 35.4285714 71 62 142 35.4285714 142 26.5714286 71 0 -1.67658856e-14 26.5714286"></polygon>
                    </g>
                    <g id="cube-orange" transform="translate(196.000000, 147.000000)">
                        <polygon id="fill" fill="#0D0D28" points="0 35.4285714 71 62 142 35.4285714 142 26.5714286 71 0 -1.67658856e-14 26.5714286"></polygon>
                        <polygon id="Path-9" stroke="#E45480" points="0 35.4285714 71 62 142 35.4285714 142 26.5714286 71 0 -1.67658856e-14 26.5714286"></polygon>
                        <path d="M71,53.1428571 L71,62" id="Path-9" stroke="#D82071"></path>
                        <line x1="71" y1="8.85714286" x2="71" y2="0.553571429" id="Path-116" stroke="#6D0030" stroke-width="0.4"></line>
                        <polyline id="Path-9" stroke="#6D0030" stroke-width="0.4" points="142 35.4285714 71 8.85714286 0 35.4285714"></polyline>
                        <polyline id="Path-58" stroke="#D82071" points="7.88258347e-15 26.5714286 71 53.1428571 142 26.5714286"></polyline>
                        <polygon id="Path-9" stroke="#D82071" points="0 35.4285714 71 62 142 35.4285714 142 26.5714286 71 0 -1.67658856e-14 26.5714286"></polygon>
                    </g>
                    <path d="M454.039329,91.1595745 L436.1,97.8295035 L438.561799,98.7448066 L443.822036,96.7889148 L449.134318,96.2680884 L443.873255,100.71985 L446.831132,101.819491 L454.044286,95.771468 L463.847699,94.806423 L460.848104,93.6996005 L448.668807,94.9795885 L456.511042,92.0786016 L454.039329,91.1595745 Z M473.425833,98.3759456 L457.538141,102.18399 L467.748825,96.2569962 L465.005323,95.2368895 L451.460471,103.540851 L453.876834,104.406679 C453.876834,104.406679 476.17677,99.3904664 476.136757,99.3758364 C476.097463,99.3609405 473.425833,98.3759456 473.425833,98.3759456 M487.490637,103.596951 L473.259703,106.458038 L480.8128,101.11438 L478.413372,100.222219 L460.474456,106.892148 L462.910233,107.797609 L473.264659,103.917214 L466.002765,109.098079 L480.00528,106.375312 L469.511655,110.251984 L471.980889,111.170213 L489.920218,104.500284 L487.490637,103.596951 Z" id="Fill-18" fill="#D82071"></path>
                    <path d="M178.363084,66.875171 L192.059804,64.8407861 L202.309513,64.6579893 C207.946699,64.5578618 212.570058,64.4772463 212.583988,64.4787439 C212.596371,64.4803272 212.445457,64.5116491 212.246562,64.5475923 C212.047666,64.584049 202.961922,66.2353821 192.055161,68.2173927 L172.225951,71.819928 L168.429906,70.3709037 C166.342661,69.5739916 164.640826,68.919312 164.650037,68.9157177 C164.6594,68.9121233 170.829037,67.9940314 178.363084,66.875171 Z M244.429751,94.1920005 L251.359372,91.5378522 L252.21532,91.8654488 L253.072816,92.1940723 L251.644172,92.7409223 C250.85865,93.0423317 250.223267,93.2913667 250.23178,93.2949611 C250.241067,93.2980419 250.410554,93.2651795 250.610224,93.2210208 C251.523442,93.0181984 252.531077,92.8888029 253.496147,92.8487519 C254.366026,92.8128087 255.0966,92.8718583 255.730435,93.0300083 C255.908435,93.0746806 256.038453,93.1198663 256.321705,93.236425 C256.678479,93.3822517 256.836357,93.4695423 256.964827,93.5927761 L257.00507,93.6312867 L255.841879,94.0769823 L254.678687,94.5221645 L254.608261,94.3937959 C254.485208,94.1673538 254.224399,93.9968803 253.77166,93.8454054 C253.476799,93.7463049 253.249269,93.6949575 252.920355,93.6523391 C252.243955,93.5635081 251.48165,93.5732641 250.687615,93.6800667 C249.53758,93.835136 248.272231,94.1160064 247.275431,94.4379547 C247.095883,94.4954638 245.745404,95.0068842 243.095525,96.0194554 L239.18107,97.5152058 L238.336731,97.1917171 C237.872383,97.014055 237.494713,96.863607 237.496251,96.8574453 C237.498583,96.8512836 240.618228,95.6518078 244.429751,94.1920005 Z M214.827563,87.914778 L215.182015,87.7787073 L223.954324,86.8205644 L232.725859,85.8624214 L229.900301,84.7702617 L227.073195,83.678102 L228.010404,83.3155892 L228.947613,82.9525629 L233.053998,84.5253345 L237.158835,86.0981061 L236.840756,86.2197995 L236.522678,86.3420064 L227.719413,87.3119592 C222.87781,87.845459 218.91073,88.283966 218.904539,88.2865333 C218.898348,88.2885872 220.287522,88.8246543 221.990906,89.4772801 L225.088881,90.6639191 L224.140837,91.0274588 L223.192793,91.3909986 L218.832565,89.7206669 L214.473111,88.0508487 L214.827563,87.914778 Z M220.316931,81.3530907 C223.370019,79.2617101 223.558854,79.1379628 224.147028,78.8396343 C224.422542,78.7004828 224.409385,78.6881594 224.090533,78.7898273 C223.863002,78.8627406 223.31275,79.0106212 222.990802,79.0855884 C222.830602,79.1230721 220.344792,79.6601661 217.466608,80.279416 C214.588424,80.898666 212.224892,81.4090594 212.213283,81.4136806 C212.201675,81.4183019 213.349388,81.8650245 214.762554,82.4062263 C216.176494,82.9479417 217.33659,83.3895295 217.341234,83.3885061 C217.345877,83.3864487 218.683974,82.4704106 220.316931,81.3530907 Z M213.282832,80.1171582 L225.804751,77.4840623 L226.711777,77.8316843 L227.618804,78.1793064 L227.442352,78.3045941 C226.900612,78.6881594 213.909702,87.8187583 213.900415,87.8224113 C213.894223,87.82492 213.455415,87.6606082 212.923736,87.456759 L211.95944,87.087571 L213.898867,85.7453493 L215.839068,84.4036411 L212.691562,83.1980036 L209.545604,81.9928796 L209.424873,82.0175263 C209.359865,82.0313901 207.801203,82.372337 205.962385,82.7754143 L202.619079,83.509169 L201.651687,83.1384406 C200.884739,82.8457603 200.69126,82.7666853 200.722217,82.7594966 C200.743887,82.7548754 206.395002,81.5661825 213.282832,80.1171582 Z M260.062028,99.0248201 C261.179559,98.597096 262.059499,97.9840078 262.189516,97.5444739 C262.281612,97.2307411 262.120638,96.9550054 261.704273,96.715213 C261.507699,96.6012217 260.967507,96.4086688 260.63782,96.335242 C259.942072,96.1806863 259.17048,96.1267715 258.259584,96.1714437 C257.301479,96.2186834 256.330992,96.3496193 255.386044,96.5606572 C255.047069,96.6361379 254.522356,96.773749 254.250713,96.8579588 L254.121469,96.8980098 L256.994236,97.9988986 L259.867776,99.0992739 L260.062028,99.0248201 Z M246.867579,100.050742 C246.631535,99.1911857 247.550944,98.2766881 249.612649,97.3221395 C250.326198,96.9919756 251.375624,96.5832501 252.106972,96.3506462 C253.740704,95.8304968 255.658461,95.4402564 257.346366,95.2841603 C257.778984,95.2435958 258.638028,95.1999505 259.057489,95.1968696 C260.192046,95.1871136 261.245342,95.2805659 262.132247,95.469011 C262.648447,95.5788945 263.409204,95.8289564 263.784552,96.0122667 C264.725631,96.4723396 265.048353,97.1013456 264.676874,97.7544848 C264.299978,98.418407 263.1987,99.1259745 261.431081,99.8397037 C261.153246,99.9511276 260.657168,100.142654 260.326707,100.265887 L259.72615,100.488222 L255.967253,99.0530612 L252.208355,97.6179007 L251.989338,97.7026239 C251.322998,97.9578206 250.687615,98.2962001 250.254998,98.6253371 C249.883519,98.9098019 249.593302,99.2640991 249.559249,99.4771909 C249.488823,99.912617 249.781363,100.301317 250.40978,100.608888 C250.641954,100.722366 251.351633,100.968834 251.714598,101.061259 C252.750094,101.324671 254.011573,101.468957 255.322583,101.474092 C255.476591,101.474606 255.622861,101.476146 255.646852,101.477173 C255.681678,101.4782 255.486652,101.556248 254.64773,101.877169 L253.605269,102.276652 L253.284095,102.263302 C251.929746,102.208874 250.683746,102.028644 249.630449,101.736991 C249.315467,101.6497 248.30164,101.275891 248.009875,101.13982 C247.393066,100.851761 246.98057,100.45844 246.867579,100.050742 Z M229.278848,90.674702 C229.917327,90.3691848 229.935127,90.3619962 234.59099,88.572025 L239.096714,86.8400764 L239.95421,87.1686999 L240.810932,87.4973234 L236.452252,89.1717629 C232.523867,90.6818907 232.06571,90.8595527 231.818058,90.9771383 C230.811197,91.452102 230.288031,91.8305325 230.141762,92.189451 C230.024901,92.4769966 230.140988,92.7167891 230.519431,92.9647971 C230.698205,93.0813558 231.386215,93.3452815 231.671015,93.4058715 C232.341224,93.5481039 233.053998,93.5943165 233.902207,93.5511847 C234.869599,93.5013777 235.957721,93.3221752 236.987026,93.0428452 L237.333739,92.9488794 L241.74195,91.2641704 L246.150935,89.5799749 L247.025457,89.9152736 L247.900753,90.2510858 L240.980419,92.9021533 L234.059311,95.5532208 L233.192528,95.2210029 L232.325745,94.8892986 L233.423929,94.4687632 C234.170755,94.1832715 234.512825,94.0466873 234.494251,94.04412 C234.479546,94.0420661 234.345659,94.0590107 234.197842,94.0821171 C233.187111,94.2402671 232.038624,94.2993167 231.101414,94.2407806 C229.977692,94.1709481 229.155796,93.98353 228.335448,93.6122881 C226.56009,92.807674 226.876621,91.8233439 229.278848,90.674702 Z M178.023336,75.4943496 C183.24493,76.743119 187.559498,77.7746887 187.61135,77.7854717 L187.704219,77.8060106 L189.92922,73.8861483 C191.153552,71.7295565 192.168152,69.9606377 192.18363,69.9539626 C192.214587,69.9426661 211.242022,65.8220354 211.318769,65.8102227 C211.343405,65.8066311 207.804299,69.3182815 202.737488,74.3231149 C197.994172,79.0090808 194.082814,82.872461 194.045666,82.9084041 L193.978335,82.9741289 L181.254425,78.0981775 L168.530514,73.2222261 L178.023336,75.4943496 Z" id="Fill-1" fill="#D82071"></path>
                    <path d="M59.8684528,105.547783 L64.4620283,107.260875 L69.3301604,105.445258 L64.7365849,103.731623 C64.4124906,103.611197 64.1807547,103.455511 64.066566,103.277583 L57.8936604,103.59872 L57.85,103.610112 C57.8525189,104.383661 58.5586415,105.065535 59.8684528,105.547783 M83.653367,102.259113 L83.7205368,102.284066 L83.7238953,102.252061 L89.6323198,101.945028 L89.6978104,101.924414 C90.0605274,100.192336 87.9547538,98.7640362 84.1336311,98.1488853 C80.3074708,97.5348194 75.3108764,97.8185265 70.912933,98.9007363 C70.9809425,98.9077883 71.046433,98.9175526 71.1077255,98.9289443 C72.8759708,98.9739686 74.4704142,99.2169911 75.6668764,99.6547572 C76.0631783,99.8012217 76.4032255,99.9655874 76.6853387,100.1446 C76.7206028,100.145684 76.7457915,100.150024 76.7575462,100.157619 C80.7751406,99.8798785 83.8036594,100.80369 83.6659613,102.263995 L83.653367,102.259113 Z M86.8896925,104.859617 C88.526117,103.933636 89.5101547,102.919776 89.7234189,101.940091 L83.7243151,102.252006 C83.6344755,103.098788 82.480834,103.992221 80.5891642,104.677892 L79.9837962,104.903556 C83.0459,106.045979 76.962834,108.315094 73.9007302,107.173213 L69.3063151,105.459036 L69.2895226,105.460121 L64.4616925,107.261092 L64.4423811,107.253497 L64.4331453,107.276823 L69.0284,108.990458 C71.6362679,109.983161 76.2323623,110.010827 80.3481925,109.060435 C84.4573057,108.108958 87.1163906,106.402376 86.8896925,104.859617 M75.6667085,99.6548657 C73.0932651,98.7120684 68.6692934,98.6746386 64.6550575,99.5648172 C60.6341047,100.454996 57.914567,102.076954 57.8776236,103.599642 L64.0715198,103.277963 C63.483784,102.404058 65.6743594,101.325646 68.3158123,101.188403 C70.9547462,101.05116 72.4106519,101.939712 71.1335858,102.910174 L77.3266425,102.587953 C78.1561896,101.433053 77.5399066,100.346504 75.6667085,99.6548657 M131.579951,125.852968 L136.898121,126.429061 C137.127338,126.265781 137.214658,126.092193 137.142451,125.938677 C137.073602,125.764547 136.873772,125.610488 136.556394,125.498741 C136.014838,125.308879 135.224753,125.230223 134.359102,125.282841 C133.357432,125.327323 132.341489,125.535628 131.579951,125.852968 L131.579951,125.852968 Z M128.496017,128.610297 C127.441451,128.243594 126.988055,127.678892 127.239942,127.052892 C127.479234,126.424722 128.395262,125.790042 129.770564,125.294233 C131.095489,124.772385 132.792366,124.422498 134.480847,124.322143 C136.086206,124.2245 137.54463,124.379644 138.490045,124.752314 C138.938404,124.915595 139.266696,125.12173 139.447215,125.358243 C139.620177,125.568718 139.667196,125.801976 139.579875,126.044999 C139.514385,126.252219 139.381725,126.462152 139.192809,126.670999 C139.024045,126.846756 138.817498,127.018717 138.572328,127.186337 L138.164272,127.468959 L130.193734,126.590715 C129.537989,127.072963 129.66813,127.576367 130.512791,127.857904 C131.285243,128.146493 132.53796,128.215386 133.815026,128.037458 L133.951885,128.949335 C132.998913,129.05837 132.04846,129.09797 131.155942,129.067592 C130.088781,129.031247 129.168555,128.873391 128.496017,128.610297 L128.496017,128.610297 Z M124.186234,126.772982 L122.499432,126.143727 L137.43464,120.573194 L139.120602,121.202449 L124.186234,126.772982 Z M119.494423,123.762323 C120.039338,123.974968 120.885677,124.057964 121.807583,123.987444 C122.809253,123.909872 123.804206,123.696143 124.582536,123.388567 C125.420479,123.093468 126.008215,122.71917 126.227357,122.338363 C126.42047,121.992815 126.198809,121.677645 125.622828,121.476392 C125.06196,121.256695 124.207225,121.166647 123.256772,121.230657 C122.233272,121.294125 121.203894,121.504058 120.400375,121.814888 C119.570828,122.113241 119.018357,122.495676 118.85547,122.872144 C118.67663,123.226914 118.910885,123.551306 119.494423,123.762323 L119.494423,123.762323 Z M112.816904,126.164883 C112.009187,125.889855 111.570064,125.486807 111.572572,125.027342 C111.573423,124.618326 111.864772,124.185985 112.4248,123.774257 L114.706894,124.021077 C114.369366,124.266812 114.18213,124.522311 114.164498,124.768046 C114.13763,125.030597 114.376083,125.262228 114.831158,125.418457 C115.348366,125.644663 116.176234,125.744476 117.104017,125.691857 C118.112404,125.60669 119.10064,125.381027 119.862177,125.064229 L120.596847,124.790287 L120.536394,124.767503 C119.25513,124.874368 118.077979,124.753942 117.365979,124.445281 C116.380262,124.080748 115.9848,123.531235 116.272791,122.928018 C116.492772,122.306357 117.387809,121.674933 118.74464,121.181293 C120.081319,120.669752 121.780715,120.331799 123.458281,120.247175 C125.072875,120.139226 126.554809,120.28569 127.536328,120.652394 C127.945225,120.804825 128.229017,121.000654 128.370913,121.226318 C128.502734,121.414552 128.516168,121.625569 128.396942,121.840383 L128.457394,121.863167 L129.26763,121.561016 L130.866272,122.157723 L121.766442,125.551902 C120.395338,126.126368 118.58847,126.523992 116.766489,126.652555 C115.171206,126.720905 113.743008,126.546775 112.816904,126.164883 L112.816904,126.164883 Z M110.475196,119.739432 C110.135989,120.483688 111.538158,121.006078 113.530583,120.879685 C114.553243,120.819472 115.575064,120.610624 116.379423,120.298709 C117.219045,119.997643 117.78747,119.612496 117.948677,119.231688 C118.265215,118.489059 116.869762,117.968839 114.882375,118.08818 C113.858875,118.146766 112.826979,118.359411 112.022621,118.674038 C111.187196,118.973477 110.625489,119.357539 110.468479,119.737804 L110.475196,119.739432 Z M113.308083,121.862624 C109.84296,122.014513 107.433243,121.115655 107.8413,119.822971 C108.052885,119.191546 108.966394,118.549815 110.356809,118.052378 C111.694328,117.5327 113.415555,117.191492 115.103196,117.11392 C118.572517,116.960404 120.982234,117.859804 120.571658,119.153031 C120.362592,119.782829 119.448243,120.42456 118.056149,120.924167 C116.720309,121.442217 114.999923,121.782883 113.308083,121.862624 L113.308083,121.862624 Z M102.076451,116.607262 C101.733885,117.349348 103.136055,117.872281 105.128479,117.745345 C106.1503,117.685132 107.17464,117.476827 107.976479,117.164369 C108.817781,116.863846 109.385366,116.478698 109.546574,116.097891 C109.863111,115.354719 108.468498,114.834499 106.481951,114.954383 C105.457611,115.013511 104.424036,115.225071 103.621357,115.539698 C102.785092,115.839137 102.224225,116.224284 102.070574,116.604549 L102.076451,116.607262 Z M104.905979,118.728284 C101.440857,118.880173 99.0311396,117.981316 99.4425547,116.689716 C99.6524604,116.057749 100.56597,115.416017 101.954706,114.91858 C103.293064,114.398903 105.017649,114.05878 106.704451,113.980665 C110.165375,113.828234 112.575932,114.727092 112.168715,116.019234 C111.960489,116.648489 111.04614,117.290763 109.653206,117.789827 C108.319045,118.30842 106.5953,118.647458 104.900102,118.725572 L104.905979,118.728284 Z M90.7188755,114.518244 C89.0916868,113.931301 88.3914415,113.04709 88.7709509,112.06632 C89.0606208,111.095315 90.4325642,110.099899 92.5576491,109.321467 C94.6483094,108.527304 97.3157906,108.015764 99.9152623,107.909441 C102.555875,107.75918 104.9488,108.014136 106.534847,108.61898 C108.08647,109.178258 108.7758,110.019615 108.437432,110.95536 L105.743083,111.103452 C105.962225,110.434055 105.46013,109.834635 104.344272,109.435927 C103.218338,108.998703 101.496272,108.821318 99.6012434,108.94066 C97.7204887,109.036133 95.8019509,109.415856 94.299866,109.991407 C92.7893849,110.546887 91.790234,111.252629 91.5375075,111.948606 C91.006866,113.387755 93.6449604,114.402158 97.4837151,114.236707 C98.7263566,114.152083 99.9689981,113.918825 101.023564,113.574904 L97.1520642,112.130873 L99.3418,111.314469 L104.822857,113.359005 C104.43663,113.543442 104.006743,113.718114 103.552508,113.881395 C101.754875,114.601783 99.4198849,115.091083 97.0949698,115.234293 C94.5257245,115.387267 92.2066868,115.126885 90.7188755,114.518244 L90.7188755,114.518244 Z M140.621511,133.133283 C139.142096,132.604384 138.495587,131.805339 138.838153,130.917872 C139.174002,130.029864 140.467021,129.131548 142.419983,128.429061 C144.299058,127.702163 146.708775,127.219915 149.091625,127.09298 C151.466917,126.966586 153.614672,127.206354 155.026917,127.759664 C156.557549,128.284766 157.13353,129.120156 156.597851,130.029321 L154.474445,130.126964 C154.936238,129.435869 154.513908,128.790883 153.334238,128.396513 C152.288908,127.983701 150.706219,127.801976 148.938813,127.892025 C147.0992,127.989668 145.227681,128.371018 143.793606,128.941144 C142.260455,129.478181 141.241992,130.174158 140.977511,130.861999 C140.734021,131.521089 141.221842,132.111829 142.327625,132.501316 C143.56103,132.974342 145.481247,133.14359 147.551757,132.959696 L147.252011,133.763623 C145.997615,133.870488 144.766728,133.8732 143.665143,133.770133 C142.465323,133.66164 141.424191,133.445741 140.621511,133.133283 M146.252021,135.00434 L147.586181,135.501777 L161.386219,130.354364 L160.052898,129.856927 L146.252021,135.00434 Z M153.000992,135.851393 C152.64751,136.645556 154.142039,137.203206 156.271322,137.070845 C157.416567,136.997613 158.555935,136.757845 159.441737,136.405246 C160.388831,136.074344 161.030303,135.649597 161.228454,135.222138 C161.582775,134.427975 160.087407,133.870325 157.957284,134.002686 C156.815397,134.077003 155.676869,134.316771 154.791067,134.669913 C153.851529,135.000271 153.209218,135.425018 153.016105,135.85085 L153.000992,135.851393 Z M158.071473,133.218287 C161.447595,133.046869 163.800218,133.924029 163.338425,135.182538 C163.063869,135.800944 162.143642,136.420435 160.782614,136.904852 C159.482039,137.413138 157.822944,137.756516 156.16469,137.857956 C152.790246,138.031544 150.437624,137.153299 150.897737,135.893705 C151.174812,135.276384 152.09168,134.656351 153.452708,134.170849 C154.753284,133.663647 156.416576,133.321355 158.071473,133.218287 L158.071473,133.218287 Z M163.469239,141.426482 L162.179578,140.944777 L163.486871,140.457104 L163.447408,140.442458 C162.719456,140.542271 161.988144,140.572106 161.325682,140.530879 C160.616201,140.495076 159.994041,140.386042 159.530569,140.212997 C158.700182,139.953158 158.350059,139.526783 158.580956,139.055385 C158.911767,138.567712 159.695135,138.093059 160.779927,137.720931 L166.591795,135.553256 L167.926795,136.050693 L162.439022,138.097399 C160.682531,138.752692 160.387824,139.30112 161.561616,139.738886 C162.070427,139.945021 162.894097,140.013913 163.773182,139.926035 C164.702644,139.838156 165.605239,139.636903 166.33655,139.358621 L171.566559,137.408473 L172.903239,137.907537 L163.469239,141.426482 Z M169.532658,142.712169 C170.12711,142.944342 171.050695,143.036561 172.060761,142.967668 C173.19929,142.881417 174.325224,142.634055 175.192554,142.28037 C176.141327,141.956521 176.80379,141.537198 177.035525,141.111909 C177.427629,140.319373 175.931422,139.761181 173.808856,139.908188 C172.671167,139.991727 171.549431,140.237462 170.685459,140.592231 C169.733327,140.914996 169.075903,141.333233 168.850884,141.757438 C168.651893,142.138245 168.900422,142.486505 169.532658,142.712169 M167.695563,143.231847 C166.773658,142.891724 166.432771,142.368791 166.756025,141.802462 C167.062488,141.189481 167.988592,140.575957 169.331988,140.094252 C170.628365,139.591391 172.268988,139.24747 173.916327,139.131384 C175.431007,139.012585 176.829818,139.140063 177.744167,139.483441 C178.259695,139.670047 178.609818,139.915782 178.739959,140.200574 C178.874299,140.446309 178.810488,140.718082 178.555242,140.991483 L178.612337,141.012639 L179.864214,140.50381 L184.229412,138.875342 L185.566931,139.373864 L171.766054,144.521277 L170.476393,144.039571 L171.784525,143.551899 L171.724073,143.529658 C170.991922,143.625131 170.26229,143.648457 169.603186,143.59855 C168.848365,143.549186 168.189261,143.423878 167.695563,143.231847" id="Fill-7" fill="#D82071"></path>
                    <path d="M372.905866,142.262789 C372.330485,142.049444 371.846369,141.802249 371.475537,141.529495 C371.104554,141.256741 370.870544,141.023592 370.810713,140.832391 C370.770319,140.71611 370.800539,140.614559 370.892867,140.547541 C370.985347,140.480426 371.115032,140.415847 371.251702,140.365217 L372.026166,140.078026 C372.345063,139.959696 372.585451,139.936186 372.751277,139.997741 C372.81779,140.022324 372.868965,140.052662 372.904955,140.088464 C372.940945,140.124363 372.97982,140.183771 373.029629,140.247375 C373.177992,140.471451 373.405168,140.690844 373.715105,140.8958 C374.036128,141.105048 374.406808,141.287567 374.849316,141.451746 C375.546333,141.710258 376.255499,141.849366 376.965729,141.864974 C377.675958,141.880485 378.360979,141.774154 378.983587,141.543249 C379.408783,141.385509 379.658586,141.219086 379.748029,141.038128 C379.83732,140.857365 379.719328,140.62207 379.420172,140.330879 L378.499471,139.482474 C378.041019,139.053442 377.959928,138.640311 378.278217,138.251569 C378.581321,137.868289 379.137265,137.522566 379.926915,137.229717 C380.564861,136.993154 381.226192,136.821756 381.911365,136.715327 C382.596234,136.608996 383.287026,136.549783 383.953065,136.548905 C384.634138,136.542466 385.268439,136.586267 385.893174,136.682745 C386.51806,136.779321 387.058514,136.923502 387.545364,137.103973 C387.788788,137.194305 388.027961,137.294296 388.225829,137.401505 C388.434783,137.512811 388.60638,137.621483 388.777977,137.730058 C388.923302,137.840389 389.057391,137.946428 389.165512,138.054027 C389.273482,138.161724 389.337261,138.253032 389.356851,138.327854 C389.390259,138.430381 389.379325,138.516421 389.309168,138.591731 C389.253892,138.661383 389.120107,138.735717 388.907509,138.814441 L388.193788,139.079196 C387.874891,139.197526 387.619469,139.226596 387.453491,139.165041 C387.364959,139.132264 387.281894,139.056369 387.215229,138.94155 C386.979549,138.561295 386.468859,138.225425 385.683461,137.934136 C385.052804,137.700208 384.418351,137.566269 383.786783,137.546076 C383.155367,137.525883 382.537922,137.623532 381.915313,137.854534 C381.490118,138.012275 381.236215,138.188355 381.169095,138.377508 C381.101822,138.566562 381.2227,138.825464 381.55086,139.138605 L382.438305,139.974719 C382.885671,140.399653 382.974963,140.793273 382.695396,141.151287 C382.415678,141.509497 381.867935,141.835709 381.078133,142.128656 C380.425305,142.370779 379.733451,142.553493 379.028992,142.675335 C378.3136,142.792982 377.592437,142.863316 376.885093,142.871316 C376.162564,142.884973 375.479821,142.834539 374.806796,142.731329 C374.096263,142.625583 373.47001,142.472135 372.905866,142.262789 L372.905866,142.262789 Z M359.099753,136.838242 C358.90067,136.764396 358.813505,136.698256 358.831272,136.62597 C358.833854,136.559343 358.969157,136.451841 359.191322,136.320146 L368.329846,131.002223 C368.567197,130.864968 368.731353,130.779513 368.837652,130.740102 C369.080773,130.649965 369.305823,130.632015 369.482887,130.697765 L370.567137,131.099775 C370.777153,131.177816 370.875555,131.248053 370.846551,131.316144 C370.84397,131.382869 370.697732,131.486274 370.475719,131.617968 L362.281434,136.035686 L374.060122,132.947303 C374.419108,132.855117 374.682882,132.806536 374.862527,132.805658 C375.042172,132.804682 375.257807,132.839508 375.45689,132.913452 L376.341905,133.241616 C376.552226,133.319657 376.650476,133.389894 376.632709,133.462082 C376.629976,133.528807 376.494824,133.636309 376.250488,133.759712 L367.824167,138.181527 L379.912489,135.117921 C380.282561,135.029832 380.55742,134.985349 380.72598,134.980374 C380.905625,134.979301 381.110023,135.010127 381.309257,135.083973 L382.33808,135.465595 C382.515144,135.531247 382.493276,135.61319 382.235122,135.708888 C382.159194,135.737081 382.072029,135.761274 381.96983,135.790832 C381.867783,135.820585 381.724127,135.857459 381.512896,135.903016 L367.108167,139.267763 C366.738095,139.355754 366.463236,139.400238 366.283743,139.401236 C366.103945,139.402189 365.899548,139.371362 365.711398,139.301711 L364.760022,138.948769 C364.549854,138.870826 364.451604,138.800589 364.469371,138.7284 C364.487138,138.656017 364.607104,138.554076 364.866625,138.425015 L372.946564,134.156356 L361.463235,137.151578 C361.104248,137.243764 360.840475,137.292345 360.645644,137.298881 C360.450813,137.305514 360.250364,137.26503 360.051281,137.191086 L359.099753,136.838242 Z M351.856236,132.935109 C352.221449,133.070608 352.688557,133.176256 353.269101,133.256443 C353.849646,133.336533 354.537704,133.34385 355.291971,133.285806 C355.757561,133.244347 356.20918,133.175378 356.639994,133.064755 C357.070809,132.954229 357.555532,132.807316 358.07169,132.615725 L358.709636,132.37926 C358.495063,132.220837 358.243135,132.059877 357.949901,131.906038 C357.656668,131.752199 357.343997,131.613774 357.001107,131.486469 C356.259899,131.211666 355.520362,131.083776 354.745291,131.100457 C353.970219,131.117139 353.216104,131.265515 352.456825,131.547048 C351.743103,131.811803 351.344482,132.058218 351.256558,132.295951 C351.142362,132.535148 351.347367,132.746347 351.856236,132.935109 L351.856236,132.935109 Z M358.656031,133.744981 C358.094164,133.953254 357.682939,134.138699 357.426151,134.29127 C357.180752,134.448133 356.92685,134.624213 356.686918,134.828096 C356.620708,134.893748 356.521395,134.947011 356.415096,134.986422 C356.26324,135.042709 356.045023,135.074413 355.74936,135.077438 L354.414549,135.055391 C354.22397,135.052367 354.078796,135.032271 353.990264,134.999494 C353.879561,134.958425 353.844938,134.889261 353.870905,134.797562 C353.943796,134.655625 354.054043,134.516224 354.186462,134.385114 C354.333913,134.248347 354.511888,134.100264 354.739368,133.925549 C352.479452,134.123676 350.696666,133.980763 349.391314,133.496518 C348.461957,133.151868 348.085203,132.741762 348.271985,132.270295 C348.458768,131.798926 349.154115,131.335947 350.368961,130.885356 C351.659734,130.406671 353.039495,130.141136 354.503992,130.098603 C355.968488,130.055973 357.259414,130.241809 358.398939,130.664402 C358.774934,130.803998 359.116609,130.964568 359.450084,131.144453 C359.783407,131.324436 360.082411,131.525489 360.388249,131.740298 L361.496795,131.329118 C362.650899,130.901062 363.27867,130.536902 363.406533,130.235078 C363.523158,129.929156 363.153541,129.623235 362.301782,129.307168 C361.91455,129.16367 361.45549,129.038511 360.909569,128.937253 C360.363496,128.836189 359.798289,128.750344 359.198459,128.685667 C358.915096,128.659426 358.721632,128.632697 358.613815,128.615333 C358.505997,128.597773 358.435536,128.582946 358.391194,128.566557 C358.236301,128.509099 358.310862,128.424034 358.629608,128.305802 L359.373852,128.029829 C359.61667,127.939691 359.821067,127.880282 359.982642,127.861357 C360.144368,127.84253 360.350133,127.839896 360.611325,127.85804 C361.271897,127.90028 361.964359,127.988076 362.688711,128.121527 C363.428096,128.249417 364.094591,128.428912 364.702925,128.654646 C366.019514,129.142891 366.571965,129.652013 366.371515,130.185814 C366.15998,130.715617 365.224549,131.292341 363.554136,131.911989 L358.634011,133.736787 L358.656031,133.744981 Z M367.61658,145.775502 C360.286657,145.794232 353.039647,144.559425 348.492784,142.873052 C342.120463,140.509672 339.613325,137.180531 340.652322,133.578344 C340.734476,133.293396 341.621313,133.194186 341.696633,133.469964 C342.651654,136.595222 346.17501,139.580298 352.160099,141.800181 C356.198094,143.297791 361.78851,144.515137 368.239644,145.150587 C369.227769,145.235457 368.821403,145.771795 367.61658,145.775502 M371.50114,145.459035 C371.856483,144.982594 368.820431,144.172038 367.439304,143.80622 C367.024586,143.697353 367.394506,143.519126 368.034123,143.519904 C372.118434,143.547806 374.959958,145.029711 374.69011,145.425185 C374.404925,145.826414 369.203715,147.377971 365.009157,147.489375 C364.361189,147.508105 364.255801,147.333878 364.84409,147.214085 C366.789969,146.820659 371.160983,145.929916 371.50114,145.459035" id="Fill-1" fill="#D82071"></path>
                    <path d="M303.249217,47.7008279 L313.501309,41.1429587 C313.646853,41.0537307 313.831047,40.9329174 314.052081,40.8492167 C314.650562,40.6233828 315.582406,40.5459992 316.102378,40.742222 C316.557128,40.9139663 316.442383,41.1804661 315.979179,41.4576259 L307.027321,47.0639921 L321.935006,43.6808265 C322.637362,43.5181629 323.320392,43.4660474 323.771517,43.6366072 L323.863917,43.6713509 C324.341615,43.8513863 324.225663,44.1178861 323.79507,44.3824119 L314.806977,50.0002276 L329.769619,46.6154828 C330.391049,46.4666377 331.078307,46.3939918 331.556005,46.5744221 C332.05484,46.7627486 331.883932,47.1018942 331.281827,47.3289126 C331.062001,47.4122185 330.741321,47.4809162 330.504586,47.5369798 L313.075547,51.4101103 C312.169672,51.6134397 311.428062,51.6205464 311.019211,51.4661739 L310.950968,51.440511 C310.496823,51.2691615 310.536077,50.9971343 311.099532,50.6639108 L319.911885,45.1294009 L305.224025,48.4462377 C304.341703,48.6590427 303.620626,48.6736508 303.168292,48.5026962 L303.120583,48.4845347 C302.690594,48.3226607 302.708712,48.0427372 303.249217,47.7008279 M343.64974,52.0488017 C344.316464,51.79691 345.271257,51.7282123 345.747747,51.9078529 C346.250206,52.0973639 346.096811,52.4459851 345.398683,52.7093264 L342.595905,53.7674293 C346.180755,53.0650543 349.379703,53.3027326 350.647928,53.7816426 C351.173336,53.9798395 350.976459,54.3110889 350.280143,54.5740354 C349.614626,54.8251374 348.825307,54.8839648 348.272119,54.7469641 C345.618509,54.031955 341.381429,54.2262038 336.663027,56.0068172 L331.112428,58.1020979 C330.447515,58.3531999 329.515672,58.4305836 329.016233,58.242257 C328.515586,58.0531409 328.670188,57.7029404 329.362881,57.4415732 L343.64974,52.0488017 Z M353.026333,60.3480003 C355.795292,59.1678997 357.158936,57.7449882 354.864656,56.8791599 C352.86086,56.1226953 348.997605,56.4377573 345.612047,57.549555 L353.026333,60.3480003 Z M340.250474,62.598443 C337.087158,61.4045239 337.921167,59.139473 342.933072,57.2479167 L342.998295,57.2234382 C347.665968,55.4617758 353.764924,54.9256177 356.949377,56.1274331 C360.354864,57.4125543 358.38066,59.6215416 354.085603,61.2430448 C353.426126,61.4913831 352.572188,61.5253372 352.151862,61.3670165 L343.826265,58.224293 C340.562095,59.6393082 340.347101,61.0476116 342.398606,61.8218429 C343.824453,62.3603699 345.651302,62.4586787 347.595914,62.364318 C347.884586,62.3564217 348.165407,62.3678713 348.367115,62.4440705 C348.788649,62.6031808 348.653976,62.907188 348.087502,63.1207826 C347.806681,63.2269877 347.434668,63.3004232 347.037895,63.3138469 C344.476684,63.4579542 342.208372,63.3375358 340.250474,62.598443 L340.250474,62.598443 Z M330.540156,54.1504783 L332.118795,53.5547032 C331.602446,53.0982977 330.793197,52.5301596 329.366746,51.9916326 C327.171509,51.1633117 324.619356,51.2016087 322.569663,51.9750504 L322.507459,51.999134 C320.455954,52.7733653 320.614784,53.738292 322.202481,54.3380152 C324.354237,55.1497539 327.954789,55.1264598 330.540156,54.1504783 M320.642564,51.3682204 L320.705975,51.3441368 C324.145282,50.0459866 328.0182,50.1241599 330.985243,51.2442487 C332.481749,51.8088334 333.262613,52.3177494 333.893706,52.8681208 L334.465011,52.6525521 C337.397027,51.5454922 337.619269,50.4838359 335.424031,49.6551202 C334.245186,49.2101643 333.349577,49.0301289 331.95151,48.9065519 C331.776978,48.8883905 331.630226,48.8575949 331.54145,48.8240357 C331.133203,48.670058 331.244323,48.3534168 331.810797,48.1394273 C332.314464,47.9491267 332.784311,47.891089 333.300056,47.9372823 C335.151665,48.1094214 336.253209,48.3506531 337.747903,48.9144482 C339.400823,49.53865 340.072379,50.2433939 339.73177,51.0207837 C339.42196,51.7377668 338.252174,52.4871248 336.168057,53.2735953 L327.163658,56.6725535 C326.471569,56.9339207 325.602533,56.9880103 325.123627,56.8071852 C324.627207,56.6200431 324.796304,56.3022175 325.426793,56.0645391 L326.983086,55.4766603 C324.679748,55.7293416 321.995338,55.7151283 319.937793,54.9381333 C317.763089,54.1157347 317.296865,52.6308373 320.642564,51.3682204 M286.126063,30.2011482 C286.914174,29.614059 286.496264,29.0557912 285.062565,28.9282662 C283.627055,28.8007411 281.931861,29.194766 281.159451,29.7881722 L273.620154,35.4407316 C272.440705,36.327485 272.132707,36.9090468 273.289208,37.3457117 C274.524821,37.8119876 276.070848,37.6355055 278.336744,37.2209503 C278.336744,37.2209503 291.41577,34.7324344 291.551047,34.7059818 C291.688136,34.6791344 292.110274,34.5985923 292.437597,34.7245381 C292.714191,34.8303484 292.638701,35.0360467 292.221999,35.1935777 L282.603416,38.8238972 C281.120197,39.3837442 280.494539,40.0655889 281.630506,40.4943574 C282.765266,40.9227312 284.595134,40.695318 286.07775,40.135471 L293.949201,37.1644918 C295.466844,36.5916159 297.2333,36.5146271 298.297402,36.9161535 C299.362107,37.3180747 299.049882,37.9707031 297.567266,38.5301552 L289.695815,41.5011345 C288.213199,42.0609815 287.589353,42.7436158 288.723509,43.1715947 C289.858269,43.5999684 291.691156,43.3733449 293.173772,42.8138927 L301.045223,39.8429135 C302.562866,39.2700376 304.325699,39.1914695 305.391008,39.5937855 C306.453902,39.9949171 306.144092,40.6483351 304.661477,41.2077873 L296.790025,44.1787665 C295.30741,44.7386135 294.68296,45.420853 295.818323,45.8492267 C296.952479,46.2776005 298.784159,46.050977 300.267378,45.49113 L309.225276,42.1099385 C312.517226,40.8674572 312.923058,39.2795132 310.635422,38.4160538 C308.351408,37.5541737 304.719453,37.8447572 304.719453,37.8447572 C305.332428,37.0393356 305.108979,36.3322228 303.335275,35.6626174 C301.463133,34.9562942 297.62645,35.16752 297.62645,35.16752 C298.238822,34.3620984 297.768371,33.5618093 296.695814,33.1567296 C295.036855,32.5305538 292.703321,32.4168472 289.340108,33.0797408 L279.169545,35.1260645 L286.126063,30.2011482 Z M363.026652,59.9527909 L363.032087,59.9508169 C363.937962,59.6093023 364.178321,59.1386834 363.508577,58.8863969 C362.844269,58.6356897 361.579063,58.7280763 360.680435,59.0676168 L360.670168,59.0715649 C359.766105,59.4126847 359.527558,59.8829088 360.197302,60.1359849 C360.859194,60.3859025 362.123796,60.2935159 363.026652,59.9527909 M360.392971,58.969308 L360.406257,58.9637806 C361.507801,58.5480409 363.076777,58.4402565 363.88361,58.7442637 C364.701313,59.0534035 364.416264,59.6385186 363.313512,60.0550479 L363.305057,60.0582064 C362.19989,60.4751305 360.632122,60.5840993 359.821665,60.2777233 C359.003358,59.9689783 359.288407,59.3858373 360.392971,58.969308 M361.986888,59.5542245 C362.137867,59.6154431 362.329913,59.6043898 362.497198,59.5367942 L362.503841,59.5338183 C362.68562,59.4598458 362.694679,59.3841728 362.544907,59.3229542 L362.236306,59.1975411 L361.674059,59.4262606 L361.987492,59.5537994 L361.986888,59.5542245 Z M362.098613,59.0028319 C362.218792,58.9543671 362.383058,58.9433138 362.470626,58.9785995 L362.954363,59.1750092 C363.136142,59.2489817 363.204988,59.3352829 363.163922,59.4228596 C363.135538,59.4993828 363.022606,59.5805825 362.84143,59.6537048 L362.835391,59.6562555 C362.527394,59.7816687 362.227851,59.812278 361.960316,59.7842195 L361.811148,60.0184657 C361.786992,60.052476 361.762231,60.078834 361.6958,60.1060423 C361.576829,60.1540819 361.425246,60.1566327 361.351568,60.1268737 C361.282721,60.0988151 361.285137,60.0597032 361.311105,60.0201662 L361.53999,59.6826136 L361.293592,59.5818579 L360.86783,59.7553107 C360.747651,59.8042005 360.587009,59.8152539 360.500045,59.7799682 C360.413081,59.7442573 360.43905,59.6779371 360.558625,59.6294724 L362.099217,59.003257 L362.098613,59.0028319 Z" id="Fill-16" fill="#D82071"></path>
                    <path d="M254.982511,169.457075 C255.652505,169.187362 256.597741,169.130414 257.093536,169.330173 L257.093536,169.330173 L276.118839,176.989722 C276.378144,177.0795 277.65729,177.492277 278.910542,177.559453 C279.588503,176.811807 280.899157,176.143838 282.755947,175.622973 C283.718203,175.35427 284.769551,175.135949 285.810758,174.986445 L285.810758,174.986445 L286.603706,174.882904 L286.693159,175.181407 C286.687727,175.23747 287.049342,176.462039 284.573623,177.696077 C285.066159,177.821463 285.535699,177.9668 285.937695,178.128679 C287.49172,178.754347 287.472525,179.344534 287.462747,179.413351 L287.462747,179.413351 L287.472525,179.635966 L286.881119,179.777009 C286.028235,179.95846 285.167383,180.078543 284.321379,180.117055 C282.998231,180.196731 281.09255,180.143951 279.444726,179.480527 L279.444726,179.480527 L279.176729,179.372566 C276.238713,180.026772 272.769591,180.700676 268.955875,181.016982 C266.68206,181.209671 264.446633,181.257401 262.343937,181.154491 C259.805927,181.022033 257.491006,180.702443 255.471607,180.210242 C254.016271,179.85757 252.692217,179.441257 251.513208,178.966481 C248.900593,177.914651 247.252588,176.711801 247.009579,175.666158 C246.800251,174.736304 247.542496,173.649876 249.203901,172.452456 C250.746337,171.367542 252.710325,170.35031 254.982511,169.457075 Z M276.924697,173.989833 C277.105776,173.916849 277.339731,173.90902 277.46033,173.957508 L277.46033,173.957508 L280.005946,174.982316 C280.139945,175.03636 280.088881,175.132452 279.925909,175.197986 L279.925909,175.197986 L276.847557,176.437328 C276.666477,176.510185 276.432704,176.51814 276.312105,176.469653 L276.312105,176.469653 L273.766308,175.444718 C273.645709,175.39623 273.678846,175.307462 273.846345,175.229048 L273.846345,175.229048 Z M273.374198,172.560417 C273.555277,172.487432 273.789232,172.479477 273.909831,172.528091 L273.909831,172.528091 L276.455447,173.5529 C276.589446,173.606944 276.538382,173.703035 276.37541,173.76857 L276.37541,173.76857 L273.297058,175.007911 C273.115979,175.080769 272.882024,175.088724 272.761606,175.040236 L272.761606,175.040236 L270.215809,174.015302 C270.09521,173.966814 270.114766,173.872616 270.295846,173.799632 L270.295846,173.799632 Z M269.85039,171.141658 C270.03147,171.0688 270.265425,171.060845 270.386024,171.109459 L270.386024,171.109459 L272.931821,172.134267 C273.065638,172.188311 273.014574,172.284276 272.851783,172.349937 L272.851783,172.349937 L269.773431,173.589279 C269.592352,173.662136 269.358397,173.670091 269.237798,173.621477 L269.237798,173.621477 L266.692001,172.596669 C266.558183,172.542751 266.590959,172.453983 266.772038,172.380999 L266.772038,172.380999 Z M277.774394,170.788871 C277.955474,170.715887 278.189429,170.708058 278.310028,170.756546 L278.310028,170.756546 L280.855644,171.781481 C280.976243,171.829969 280.938578,171.93149 280.775788,171.997024 L280.775788,171.997024 L277.697436,173.236366 C277.534283,173.302027 277.282401,173.317179 277.161802,173.268691 L277.161802,173.268691 L274.616005,172.243756 C274.495406,172.195269 274.533071,172.093747 274.696042,172.028087 L274.696042,172.028087 Z M266.2732,169.701445 C266.45428,169.628587 266.688235,169.620632 266.808652,169.669246 L266.808652,169.669246 L269.35445,170.694055 C269.488448,170.748099 269.437384,170.844064 269.274412,170.909725 L269.274412,170.909725 L266.19606,172.149066 C266.014981,172.221924 265.781026,172.229879 265.660427,172.181265 L265.660427,172.181265 L263.114811,171.156456 C262.994212,171.107842 263.027169,171.019075 263.194848,170.940787 L263.194848,170.940787 Z M274.250587,169.370239 C274.431666,169.297254 274.665621,169.289426 274.78622,169.337913 L274.78622,169.337913 L277.332017,170.362848 C277.466016,170.416766 277.414951,170.512857 277.25198,170.578392 L277.25198,170.578392 L274.173628,171.817733 C274.010475,171.883394 273.758594,171.898546 273.637995,171.850059 L273.637995,171.850059 L271.092379,170.825124 C270.95838,170.771206 271.009444,170.675115 271.172235,170.609454 L271.172235,170.609454 Z M282.192807,169.010053 C282.373887,168.937069 282.607842,168.92924 282.72826,168.977728 L282.72826,168.977728 L285.274057,170.002663 C285.394656,170.051151 285.356991,170.152672 285.19402,170.218206 L285.19402,170.218206 L282.115668,171.457548 C281.934588,171.530532 281.700633,171.538361 281.580034,171.489873 L281.580034,171.489873 L279.034418,170.464938 C278.913819,170.41645 278.951484,170.314929 279.114455,170.249268 L279.114455,170.249268 Z M262.762829,168.288318 C262.943908,168.215334 263.177863,168.207379 263.298462,168.255993 L263.298462,168.255993 L265.844078,169.280801 C265.978077,169.334845 265.927012,169.430937 265.764222,169.496471 L265.764222,169.496471 L262.68587,170.735813 C262.50479,170.808671 262.270836,170.816626 262.150237,170.768138 L262.150237,170.768138 L259.604439,169.743203 C259.483841,169.694715 259.516978,169.605947 259.684477,169.527533 L259.684477,169.527533 Z M270.673397,167.930039 C270.854476,167.857055 271.088431,167.8491 271.20903,167.897714 L271.20903,167.897714 L273.754646,168.922522 C273.888645,168.976566 273.83758,169.072658 273.674609,169.138192 L273.674609,169.138192 L270.596257,170.377534 C270.433285,170.443194 270.181404,170.458347 270.060805,170.409859 L270.060805,170.409859 L267.515008,169.384924 C267.394409,169.336436 267.445473,169.240218 267.595045,169.169254 L267.595045,169.169254 Z" id="Fill-2" fill="#D82071"></path>
                </g>
                <g id="Cubes-Yellow" transform="translate(0.000000, 167.000000)">
                    <g id="Cube-/-Yellow" transform="translate(196.000000, 147.000000)">
                        <polygon id="fill" fill-opacity="0.88" fill="#0D0D28" points="0 35.4285714 71 62 142 35.4285714 142 26.5714286 71 0 -1.67658856e-14 26.5714286"></polygon>
                        <path d="M71,53.1428571 L71,62" id="Path-9" stroke="#FFBF26"></path>
                        <line x1="71" y1="8.85714286" x2="71" y2="0" id="Path-116" stroke="#574226" stroke-width="0.4"></line>
                        <polyline id="Path-9" stroke="#574226" stroke-width="0.4" points="142 35.4285714 71 8.85714286 0 35.4285714"></polyline>
                        <polyline id="Path-58" stroke="#FFBF26" points="7.88258347e-15 26.5714286 71 53.1428571 142 26.5714286"></polyline>
                        <polygon id="border" stroke="#FFBF26" points="0 35.4285714 71 62 142 35.4285714 142 26.5714286 71 0 -1.67658856e-14 26.5714286"></polygon>
                    </g>
                    <path d="M267.462723,178.843128 L255.543325,173.780998 C255.569052,173.736289 255.592528,173.691815 255.620507,173.647342 C256.521601,172.221837 257.343584,171.62689 258.195475,171.02674 C258.227955,171.008761 259.248681,171.844052 259.967755,172.438525 C259.967755,172.438525 260.33276,172.746525 260.922233,173.172805 C261.437742,172.304159 262.611222,171.419901 264.275127,170.713299 C267.928064,169.161707 273.082502,168.639385 274.954797,167.243213 C275.563566,167.569901 274.304221,168.73046 271.233362,170.076955 C273.410845,169.774396 276.356606,168.783686 277.974845,168.096245 C279.650327,167.384675 282.369689,166.886718 283.210003,167.186912 C280.898095,167.582912 280.37519,168.542396 277.69667,170.335514 C276.689773,171.008998 274.472091,171.919278 273.312117,172.601751 C276.259486,171.413278 280.796795,169.779837 283.520337,169.707449 C281.134785,170.24231 279.50111,171.485192 278.846675,172.138568 C277.791218,173.192676 276.883692,173.945643 274.349244,175.021988 C272.649964,175.743493 270.610443,176.236246 268.618838,176.452934 C269.687159,176.714805 270.472802,176.875665 270.472802,176.875665 L273.972341,177.714267 C273.972984,177.714267 271.239794,178.53702 267.462723,178.843128 L267.462723,178.843128 Z M262.801282,180.859321 L250.80438,175.76431 L253.910293,174.445256 L265.907194,179.540268 L262.801282,180.859321 Z M251.116965,180.727085 C249.111532,179.875235 249.398069,178.372375 251.756929,177.370547 L259.020031,180.455042 C256.661492,181.45687 253.122077,181.578461 251.116965,180.727085 L251.116965,180.727085 Z M285.223154,166.242094 C278.174231,163.248675 264.301176,164.28646 254.236706,168.560847 C244.172559,172.835235 241.728156,178.727214 248.776757,181.720633 C255.825359,184.71429 269.699058,183.676031 279.763205,179.40188 C289.827675,175.127493 292.271756,169.23575 285.223154,166.242094 L285.223154,166.242094 Z" id="Isometric-Prometeus" fill="#FFBA5E"></path>
                    <g id="Cube-/-Yellow-L" transform="translate(98.000000, 0.000000)">
                        <polygon id="Path-9" fill="#0D0D28" points="0 72.4590164 169 136 338 72.4590164 338 63.5409836 169 0 0 63.5409836"></polygon>
                        <path d="M169,127.081967 L169,136" id="Path-9" stroke="#FFBF26"></path>
                        <line x1="169" y1="8.91803279" x2="169" y2="0" id="Path-116" stroke="#574226" stroke-width="0.4"></line>
                        <polyline id="Path-9" stroke="#BF8700" stroke-width="0.4" points="336.888158 72.4590164 256.363769 41.9827818 169 8.91803279 1.11184211 72.4590164"></polyline>
                        <polyline id="Path-58" stroke="#FFBF26" points="1.87627691e-14 63.5409836 169 127.081967 338 63.5409836"></polyline>
                        <polygon id="Path-9" stroke="#FFBF26" points="0 72.4590164 169 136 338 72.4590164 338 63.5409836 169 0 0 63.5409836"></polygon>
                    </g>
                    <path d="M261.531693,63.7555008 L261.761282,57.6809728 C255.409709,58.7249716 249.554037,60.5177666 245.086163,62.7430075 L257.768732,64.9419219 C258.274054,65.0398912 258.583777,65.0640599 259.11959,64.9872381 C260.50163,64.8581949 261.537533,64.3174216 261.531693,63.7555008 Z M261.424641,69.1293973 L262.597059,70.78797 L266.718001,71.1379837 L270.691626,69.9386151 L271.55102,68.0236821 L268.609986,66.9084722 L264.025894,67.4095398 L261.424641,69.1293973 Z M281.042425,66.9574568 L295.656706,67.0882264 C296.117596,64.4624766 294.448751,62.0555393 290.702703,60.1673645 L279.838989,65.4741067 C279.498858,65.6251607 279.369999,65.7632672 279.339508,65.9380582 C279.035708,66.476242 279.902758,66.8987615 281.042425,66.9574568 Z M240.933341,65.5548558 C237.770572,68.0891101 236.546478,70.8922404 237.369178,73.3518308 L251.525376,70.134381 C252.061272,70.0579909 252.514753,69.8564417 252.756961,69.66784 C253.566248,69.2284887 253.348443,68.6790838 252.565025,68.3817232 L240.933341,65.5548558 Z M274.28319,63.1792946 L286.111712,58.3317565 L283.69735,57.7888253 C279.359903,56.8898383 274.182234,56.6058569 268.799215,56.8971753 L270.245188,62.9540084 C270.42597,63.1158519 270.508302,63.2405794 270.802515,63.3523593 C271.684992,63.686836 273.262104,63.632025 274.28319,63.1792946 Z M279.340153,70.699884 C278.916998,70.7257789 278.592376,70.7892216 278.154403,70.9031595 C276.937636,71.2816576 276.407746,71.9208317 277.063523,72.3562988 L283.313147,77.2487215 C285.89044,76.2660074 288.17352,75.1715134 290.064627,73.9285549 C291.955126,72.6855965 293.438752,71.3817848 294.401301,70.0663204 L279.340153,70.699884 Z M286.98882,84.8981383 C287.004329,84.810527 287.004329,84.810527 286.905879,84.7734109 C286.710198,84.6991786 286.725098,84.6115673 286.627866,84.5744512 C286.348552,84.37506 286.281203,84.1631528 286.11593,83.9136979 C285.920166,83.8390341 285.837308,83.7147383 285.754976,83.5900108 L285.656443,83.5524631 C285.130217,82.9793212 284.392108,82.4191267 283.540649,81.9094274 L283.442726,81.8718797 C283.148677,81.7609629 282.741031,81.6992466 282.318042,81.7260047 C282.318042,81.7260047 282.205218,81.7760683 282.107378,81.7389522 L281.436009,81.3906648 C273.20892,83.5904424 263.944195,84.5558932 255.430302,84.2196902 L254.817388,84.7337053 C254.817388,84.7337053 254.718938,84.6965892 254.605589,84.7470843 C254.069693,84.8234745 253.616129,85.0245921 253.373921,85.2131938 C252.632067,85.8648838 251.988218,86.5545531 251.653927,87.2675279 L251.427227,87.3685183 C251.396736,87.5433094 251.381227,87.6309207 251.252369,87.7690272 C251.206368,88.0314295 251.061918,88.2567157 250.804728,88.5324971 C250.789828,88.6201085 250.774319,88.7077198 250.660969,88.758215 C250.660969,88.758215 250.758728,88.7948995 250.645461,88.8458263 C250.274229,89.1716713 249.707315,89.4232841 249.042561,89.6377807 C248.377807,89.8522774 247.532272,89.9049305 246.913435,89.8565932 C246.505263,89.7953084 246.196149,89.7711398 245.902018,89.6597914 C245.117992,89.3624309 244.999246,88.8501421 245.400277,88.3490745 C245.302436,88.3119583 245.415786,88.2614631 245.415786,88.2614631 C245.431295,88.1738518 245.544727,88.1237882 245.559627,88.0361769 C245.704077,87.8108907 246.059717,87.5722254 246.414831,87.3339917 L246.900022,86.9576515 L247.01268,86.9067247 C247.965725,86.2416556 248.610265,85.5524179 249.253587,84.8631801 C249.398037,84.6378939 249.330523,84.4251236 249.149741,84.26328 C249.263174,84.2132164 249.263174,84.2132164 249.164724,84.1761003 L249.566973,83.6750326 C248.24636,83.4536307 246.714639,83.2460393 245.409699,82.9378892 C243.078277,82.5196855 241.087152,81.9512909 239.322643,81.2814744 C236.382136,80.1658328 234.106301,78.835263 232.609343,77.2405646 L231.310244,77.4943353 C231.196894,77.5448304 231.196894,77.5448304 231.098971,77.5072827 C230.69149,77.4464296 230.170494,77.4352084 229.634681,77.5120302 C228.010351,77.8292435 226.386102,78.1468885 224.845321,78.5888293 L223.969294,78.8162734 C223.417281,78.9802749 222.881468,79.0570966 222.329537,79.2215297 C222.118264,79.2344771 221.906382,79.2474246 221.793033,79.2979198 C221.695801,79.2608037 221.582451,79.3112989 221.582451,79.3112989 C220.396175,79.515006 219.142994,79.5059427 218.358967,79.2085822 C218.163286,79.1343499 217.982421,78.9720748 217.899481,78.8473474 C217.584444,78.2608263 218.552998,77.5081459 220.17672,77.1909325 C220.274561,77.2280487 220.388519,77.1775535 220.388519,77.1775535 C220.599792,77.164606 220.713142,77.1141108 220.924415,77.1011633 C221.67211,77.0113941 222.321355,76.8845088 222.744344,76.8577506 C223.16689,76.8318557 223.37869,76.8184766 223.703312,76.7550339 L223.816745,76.7049703 C225.425566,76.4753683 227.147655,76.1948394 228.673537,75.8405099 C229.111426,75.7261405 229.564381,75.5250229 229.708831,75.2997367 C229.708831,75.2997367 229.61099,75.2626206 229.72434,75.2121254 L231.00793,75.045966 C230.595053,74.4223288 230.491207,73.8224287 230.402343,73.1353489 C229.981366,70.1751224 231.885114,67.0698841 235.630915,64.1964058 L234.635006,63.9119927 C234.635006,63.9119927 234.748439,63.8619291 234.650598,63.824813 C234.681007,63.6495904 234.500834,63.4877468 234.20662,63.3759669 L234.108171,63.3388508 C232.705308,62.9931529 231.385468,62.7726141 229.853664,62.5645912 L229.755741,62.5270435 C229.559451,62.4528113 229.249811,62.4290742 228.940697,62.4049056 C228.53366,62.3431892 227.914297,62.2952835 227.408975,62.1973142 C227.310526,62.1601981 227.130271,61.997923 227.016921,62.0484182 C226.903489,62.0984818 226.903489,62.0984818 226.805648,62.0613656 C226.496534,62.037197 226.398085,62.0000809 226.201794,61.9258486 C225.206412,61.641004 225.00489,61.0048509 225.828912,60.4770252 C226.880406,59.8490722 228.69981,59.6060911 230.004749,59.9142412 C230.216631,59.9012937 230.216631,59.9012937 230.314472,59.9384098 C230.510236,60.0130736 230.722118,60.0001262 230.819959,60.0372423 C231.211931,60.1857068 231.718026,60.2845392 232.109472,60.4334353 C232.419112,60.4571724 232.614794,60.5314046 232.811167,60.6060684 C234.100597,61.0018299 235.405619,61.3104116 236.823991,61.5684981 C237.344904,61.5792877 237.865208,61.5900772 238.303872,61.4765709 C238.303872,61.4765709 238.402322,61.5136871 238.515671,61.4631919 L239.525871,61.6599936 C245.106749,58.456786 252.956683,56.0205011 261.551949,54.7071946 C261.876572,54.6437519 262.087762,54.6303729 262.412468,54.5673618 L262.501713,54.0567993 C262.466434,54.0697468 262.430464,54.0822627 262.390953,54.0921891 L262.504386,54.0421255 L262.501713,54.0567993 C262.871799,53.9286192 263.089924,53.6873644 263.117825,53.5276788 C263.240844,52.8276515 262.940707,52.1535191 262.641262,51.4798184 L262.392966,51.1052045 C262.227693,50.8557496 262.062421,50.6062948 261.995071,50.3943876 C261.896622,50.3572715 261.927639,50.1820489 261.927639,50.1820489 C261.927639,50.1820489 262.040989,50.1315537 261.943231,50.0948691 C261.952208,49.4449054 263.11697,48.7660257 264.725792,48.5364236 C265.586836,48.3961592 266.304122,48.4816126 266.891858,48.7047409 C267.381753,48.8907531 267.644949,49.1777557 267.69679,49.4772741 L267.681198,49.5644539 C267.666299,49.6520652 267.764139,49.6891813 267.74863,49.7767926 C267.702713,50.0396265 267.558872,50.2649128 267.512262,50.5273151 C267.497445,50.615358 267.579694,50.7396539 267.450836,50.8777604 C267.229977,51.5406716 267.205408,52.277815 267.293746,52.9653264 C267.376604,53.0896222 267.459545,53.2143497 267.655309,53.2890135 C267.85099,53.3632457 268.062872,53.3502983 268.16063,53.3869828 L268.258554,53.4245305 L268.393418,53.849208 C275.596366,53.3144769 282.646053,53.6558589 288.386363,54.9005437 C289.789226,55.2462415 291.094248,55.5548232 292.285838,55.9134686 L293.290723,55.5479179 L293.518114,55.4473591 C294.038418,55.4581487 294.476473,55.3446424 294.915054,55.2307046 C296.275662,54.6269202 297.522147,54.0727679 298.573642,53.4448149 L298.686991,53.3943197 C298.914382,53.2937609 299.140555,53.1932021 299.269414,53.0550956 C299.625137,52.8168619 299.980168,52.5781966 300.434341,52.377079 L301.001254,52.1254663 C301.567558,51.8738535 302.330679,51.6960414 303.176215,51.6433883 C304.233632,51.5777877 305.161583,51.6502936 305.635886,51.9234855 C306.502854,52.3455735 306.153219,53.1470228 304.921551,53.6131322 L304.241206,53.9148086 C303.689884,54.0792416 303.23632,54.2803592 302.684999,54.4447923 C302.457608,54.5453511 302.133594,54.6087937 301.906203,54.7093525 L301.792854,54.7598477 C300.236564,55.2893998 298.989388,55.8431206 297.741602,56.3968413 C297.499921,56.5850114 297.25763,56.7731815 297.324979,56.9850887 L297.438412,56.9350251 L296.629817,57.3748079 C300.668778,59.3743311 303.13724,61.9914492 303.475968,64.8273799 C303.35295,65.5274072 303.328464,66.2649822 303.205445,66.9650095 L304.556468,67.0111889 L304.654309,67.048305 C304.6388,67.1359163 304.834564,67.2105801 304.933013,67.2476962 C305.129304,67.3219285 305.438335,67.3456655 305.748058,67.3698342 C307.31027,67.4026345 309.099265,67.334876 310.692495,67.1924536 C310.904295,67.1790746 311.213409,67.2032432 311.53864,67.1398005 C312.074536,67.0634104 312.708798,67.0237048 313.342535,66.9844307 C313.440984,67.0215469 313.652257,67.0085994 313.864139,66.9956519 L314.074638,66.9818412 C314.807515,66.9801149 315.52411,67.0651367 316.014005,67.2511489 C316.50451,67.4371611 316.752114,67.8113434 316.592764,68.1242409 C316.258556,68.8376473 314.702266,69.3671994 313.026094,69.3848943 C312.912745,69.4353895 313.010585,69.4725056 312.799312,69.4854531 C312.588122,69.4988322 312.490281,69.461716 312.278399,69.4746635 C311.659646,69.4267578 311.139259,69.4155367 310.520505,69.367631 C310.210783,69.3434624 309.901669,69.3192937 309.592029,69.2955567 C307.931366,69.2256403 306.369154,69.19284 304.57955,69.2605985 C304.157087,69.286925 303.605073,69.4509265 303.264942,69.6019805 L303.151592,69.6524756 L301.883593,69.7314553 C300.617162,71.5846719 298.617937,73.4400464 296.016766,75.1603354 C293.316455,76.8430768 290.110822,78.4278489 286.43072,79.7385659 L286.988047,80.1369168 C286.746282,80.3246553 286.700365,80.5874892 286.88062,80.7497644 C287.618729,81.3099589 288.568554,81.8563427 289.532919,82.31641 L289.631368,82.3535261 C289.7137,82.4782535 289.909382,82.5524858 290.105672,82.626718 C290.498336,82.7756141 290.889781,82.9245101 291.168404,83.1234698 C291.364777,83.1981336 291.561067,83.2723659 291.447026,83.3224295 C291.333676,83.3729247 291.432126,83.4100408 291.529967,83.4471569 C292.185744,83.882624 292.062808,84.5830829 290.912863,85.1739197 C289.712214,85.4648065 288.247842,85.4691224 287.365366,85.1346457 C287.169602,85.0599819 287.071761,85.0228658 286.98882,84.8981383 Z M331.738586,69.3905049 C333.063389,68.3991592 333.361266,67.298623 332.798016,66.3379197 L319.456308,47.6452051 C319.125763,47.1462954 318.356554,46.760892 317.572445,46.4630998 C316.788418,46.1657393 315.905942,45.8312626 314.895134,45.6344608 L268.332292,41.6893624 C266.068302,41.4834974 263.516186,41.729068 261.196001,42.4355691 L216.541981,56.2065133 C214.320246,56.9501305 212.784861,57.9548552 212.177953,59.0316543 L203.267328,80.0169368 C203.0828,81.0669777 203.841732,82.1019133 205.394968,82.7846773 L238.328611,95.2815891 C239.866338,96.0519644 242.439968,96.2815665 245.218256,95.935437 L295.493457,90.6463897 C298.061691,90.3132078 300.381184,89.6062752 302.112333,88.6762142 L331.738586,69.3905049 Z M265.097694,75.0044909 L258.262396,81.186483 C262.315907,81.3241579 266.755467,81.0479449 270.946978,80.3984128 C272.978181,80.1420526 275.039875,79.7109014 277.117687,79.1921389 L269.243123,74.6169295 C268.949518,74.5051496 268.541428,74.4442964 268.134474,74.3830116 C267.108074,74.2733896 265.809057,74.5275919 265.097694,75.0044909 Z M254.195028,73.3878248 L239.300721,76.0450802 C240.581257,77.0912369 242.284257,78.1110671 244.342205,78.8918004 C245.8125,79.449837 247.411653,79.869767 249.124239,80.2396335 C250.037123,80.3988876 250.738292,80.5719523 251.440069,80.745017 L256.599196,74.5807197 C256.645114,74.3178858 256.676131,74.1426632 256.608782,73.930756 C256.376686,73.4689624 255.365269,73.2721607 254.195028,73.3878248 Z" id="Isometric-Kubernetes" fill="#FFBA5E"></path>
                    <g id="Cube-/-Yellow-Long" transform="translate(414.000000, 122.500000) scale(-1, 1) translate(-414.000000, -122.500000) translate(294.000000, 73.000000)">
                        <polygon id="Path-9" fill="#0D0D28" points="0 35.5955056 168.888889 99 240 72.3033708 240 63.4044944 71.1111111 0 0 26.6966292"></polygon>
                        <line x1="71.1111111" y1="8.8988764" x2="71.1111111" y2="0" id="Path-116" stroke="#574226" stroke-width="0.4"></line>
                        <polyline id="Path-9" stroke="#574226" stroke-width="0.4" points="238.888889 72.3033708 71.1111111 8.8988764 1.11111111 35.5955056"></polyline>
                        <path d="M0,26.6966292 C1.48148148,28.1797753 57.7777778,49.3146067 168.888889,90.1011236 L240,63.4044944" id="Path-59" stroke="#FFBF26"></path>
                        <line x1="168.888889" y1="90.1011236" x2="168.888889" y2="99" id="Path-60" stroke="#FFBF26"></line>
                        <polygon id="Path-9" stroke="#FFBF26" points="0 35.5955056 168.888889 99 240 72.3033708 240 63.4044944 71.1111111 0 0 26.6966292"></polygon>
                    </g>
                    <g id="Cube-/-Yellow-Long" transform="translate(0.000000, 73.000000)">
                        <polygon id="Path-9" fill="#0D0D28" points="0 35.5955056 168.888889 99 240 72.3033708 240 63.4044944 71.1111111 0 0 26.6966292"></polygon>
                        <line x1="71.1111111" y1="8.8988764" x2="71.1111111" y2="0" id="Path-116" stroke="#574226" stroke-width="0.4"></line>
                        <polyline id="Path-9" stroke="#574226" stroke-width="0.4" points="238.888889 72.3033708 71.1111111 8.8988764 1.11111111 35.5955056"></polyline>
                        <path d="M0,26.6966292 C1.48148148,28.1797753 57.7777778,49.3146067 168.888889,90.1011236 L240,63.4044944" id="Path-59" stroke="#FFBF26"></path>
                        <line x1="168.888889" y1="90.1011236" x2="168.888889" y2="99" id="Path-60" stroke="#FFBF26"></line>
                        <polygon id="Path-9" stroke="#FFBF26" points="0 35.5955056 168.888889 99 240 72.3033708 240 63.4044944 71.1111111 0 0 26.6966292"></polygon>
                    </g>
                    <path d="M166.490652,142.126515 C167.417187,141.764245 168.706187,141.682898 169.369852,141.944355 C170.033818,142.205813 169.821047,142.71131 168.894814,143.07358 C167.970995,143.434621 166.685616,143.516992 166.020141,143.257379 L166.020141,143.257379 C165.351949,142.994283 165.56472,142.48858 166.490652,142.126515 Z M168.955174,142.103361 C168.451163,141.907063 167.477245,141.970378 166.780081,142.244539 C166.082916,142.518906 165.92628,142.900232 166.430593,143.09653 C166.626837,143.173502 166.89523,143.210766 167.19102,143.211215 L167.105786,143.169863 L167.425999,142.816259 L167.274192,142.745196 L166.736681,142.996859 L166.491316,142.881687 L168.130407,142.113708 L168.5644,142.317343 C168.69327,142.367577 168.752423,142.448443 168.728882,142.541561 C168.693873,142.621937 168.593071,142.702802 168.448206,142.766515 L168.448206,142.766515 L168.320128,142.823109 C168.138737,142.889832 167.920956,142.920454 167.739874,142.901046 L167.739874,142.901046 L167.474436,143.200978 C167.857317,143.173385 168.260898,143.090485 168.59965,142.95781 L168.59965,142.95781 C169.302851,142.681189 169.459185,142.299659 168.955174,142.103361 Z M168.07729,142.360226 L167.582031,142.592531 L167.76251,142.676827 C167.77096,142.682954 167.781221,142.6881 167.79269,142.692755 C167.894096,142.732943 168.076686,142.714075 168.201029,142.650362 L168.201029,142.650362 C168.367021,142.572682 168.376678,142.500883 168.250827,142.441827 L168.250827,142.441827 L168.07729,142.360226 Z M168.211351,138.679274 L164.142142,142.521221 L161.766651,141.590138 L164.622914,138.957124 L168.211351,138.679274 Z M174.492654,132.30906 L176.540085,133.111668 L165.826082,137.311172 L174.981877,136.295874 L177.411692,137.248267 L162.195393,138.734434 L158.338653,140.246215 L156.29092,139.443811 L174.492654,132.30906 Z M154.243278,133.345955 C158.224058,131.785612 162.96659,131.392197 165.487549,132.380243 C166.695666,132.821401 167.15833,133.520123 166.757536,134.297733 L166.757536,134.297733 L163.52402,134.669839 C163.746146,134.184422 163.787493,133.727281 162.919206,133.386936 C161.575278,132.860128 158.809254,133.176705 156.28588,134.16557 L156.28588,134.16557 L156.159425,134.215362 C153.56392,135.23271 152.815448,136.302308 154.213701,136.850425 C155.043056,137.175608 156.185078,137.168641 157.529006,137.082581 L157.529006,137.082581 L156.744922,138.256476 C154.638338,138.465682 152.713741,138.295817 151.524637,137.795442 C149.023295,136.815182 150.005965,135.007111 153.989764,133.445538 L153.989764,133.445538 Z M151.781954,127.914282 C153.467524,128.022472 154.920101,128.307083 156.015646,128.743323 C157.259677,129.230994 157.741657,129.795914 157.476976,130.383169 C157.247002,130.983742 156.249241,131.622017 154.586307,132.273611 L154.586307,132.273611 L146.298799,135.522362 L144.286075,134.733277 L145.924865,134.090904 C144.100768,134.34273 142.374456,134.227369 141.36915,133.786416 C139.773518,133.160845 139.916573,132.05293 142.515096,131.034148 L142.515096,131.034148 L142.641853,130.984561 C145.514715,129.85841 148.303072,129.846321 150.332999,130.641962 C151.089317,130.936614 151.659422,131.300113 152.017361,131.716273 L152.017361,131.716273 L152.572678,131.498665 C154.356333,130.799533 154.524739,130.134415 153.221856,129.623795 C152.387069,129.318078 151.318083,129.115838 150.09216,129.031008 L150.09216,129.031008 Z M148.834245,131.585339 C147.655101,131.123281 146.137033,131.178605 144.724595,131.73246 L144.724595,131.73246 L144.673288,131.752541 C143.342338,132.274226 143.25572,132.834228 144.11948,133.191785 C145.271462,133.664499 147.292636,133.583767 148.801651,132.992209 L148.801651,132.992209 L150.13562,132.469295 C149.889952,132.123007 149.448112,131.822618 148.834245,131.585339 Z M150.253745,123.77795 L152.303289,124.581378 L148.699762,125.99378 L150.870932,126.844951 L148.42663,127.803081 L146.257271,126.952935 L139.146794,129.740242 C138.11493,130.144517 138.068151,130.462528 138.719441,130.717633 C139.101524,130.870082 139.610967,130.968231 140.202199,131.003064 L140.202199,131.003064 L137.85719,131.922263 C136.941218,131.870422 136.154418,131.718383 135.571033,131.48049 C134.15769,130.92643 133.920171,130.180375 136.515676,129.162823 L136.515676,129.162823 L144.205615,126.148483 L143.491247,125.868584 L145.597228,124.777676 L146.650218,125.190352 L150.253745,123.77795 Z M134.383378,123.280587 C136.783013,122.340078 139.670664,122.288852 141.466089,122.992697 C142.56103,123.441846 143.147433,124.064959 143.147132,124.777819 L143.147132,124.777819 L140.184332,125.258524 C140.141174,124.706718 139.848426,124.196917 139.086071,123.898167 C138.324321,123.599417 137.29306,123.649619 136.562697,123.936074 L136.562697,123.936074 L136.502638,123.959638 C135.621072,124.305106 135.925591,124.781712 136.343588,125.499286 C136.891964,126.445327 137.060068,127.261049 134.968574,128.080869 L134.968574,128.080869 L134.941412,128.091524 C132.321461,129.118502 129.443468,129.116453 127.618466,128.391708 C126.338218,127.866745 125.735216,127.113723 125.912072,126.260503 L125.912072,126.260503 L128.911993,125.836967 C128.801835,126.562737 129.146494,127.154499 129.997578,127.488287 C130.848663,127.821871 131.970162,127.766752 132.803138,127.44034 L132.803138,127.44034 L132.827282,127.430709 C133.787016,127.054506 133.470726,126.594702 133.008062,125.881022 C132.432222,124.983133 132.144001,124.15819 134.33509,123.299233 L134.33509,123.299233 Z M128.605633,118.117195 L130.655177,118.920623 L128.687422,119.691881 C130.418563,119.440464 132.232399,119.34252 133.53498,119.852935 C135.380203,120.576451 134.671872,121.720634 131.827077,122.838999 L131.827077,122.838999 L122.872585,126.349001 L120.825154,125.546598 L128.973833,122.352352 C130.838673,121.621255 131.217436,120.96044 130.146941,120.540797 C129.077049,120.121564 127.226696,120.264587 125.385698,120.986053 L125.385698,120.986053 L117.29406,124.15776 L115.244516,123.354332 L128.605633,118.117195 Z M112.545613,117.020099 C116.553254,115.449101 121.165708,115.00446 123.523694,115.928781 C126.135497,116.952685 124.490067,118.678385 120.482426,120.249588 C120.307079,120.318026 119.902965,120.476621 119.47863,120.627636 L119.47863,120.627636 L113.457963,118.267553 C111.394839,119.218922 111.184482,120.082796 112.436964,120.573951 C113.3469,120.930688 114.5689,120.974128 116.061919,120.887659 L116.061919,120.887659 L115.364754,121.998442 C113.172156,122.188798 111.185689,122.00213 109.92536,121.487002 C107.459027,120.520266 108.160115,118.739037 112.343405,117.099396 L112.343405,117.099396 Z M121.130397,116.866831 C120.005578,116.426082 117.81479,116.653321 115.408516,117.489328 L115.408516,117.489328 L119.470783,119.081841 C121.477772,118.209975 122.326744,117.335855 121.130397,116.866831 Z M109.462093,110.613288 L111.511636,111.416716 L109.368836,112.256617 C111.251784,111.986759 113.195093,111.880209 114.571918,112.419721 C116.49561,113.173972 116.066144,114.763616 111.553889,116.532141 L111.553889,116.532141 L111.201081,116.670451 C106.71297,118.42955 102.651005,118.614373 100.71011,117.853361 C99.3139697,117.306267 99.5635607,116.55468 100.166865,115.863744 L100.166865,115.863744 L94.3450864,118.145758 L92.2955428,117.34233 L109.462093,110.613288 Z M111.489303,113.187086 C110.256136,112.703717 107.542324,112.94366 104.919657,113.971867 L104.919657,113.971867 L104.669161,114.070016 C102.046493,115.098019 101.41482,116.154093 102.667604,116.645043 C103.920689,117.136197 106.511366,116.888264 109.18534,115.84018 L109.18534,115.84018 L109.411692,115.751457 C112.082346,114.704603 112.722772,113.670659 111.489303,113.187086 Z M92.8495624,109.278299 C96.7820545,107.736807 101.605469,107.337245 104.145744,108.333078 C106.686019,109.32891 105.68011,111.186978 101.723474,112.73769 L101.723474,112.73769 L101.497121,112.826619 C97.5643276,114.367905 92.7623414,114.759272 90.2220662,113.763644 C87.681791,112.768016 88.6635559,110.919169 92.6201922,109.368252 L92.6201922,109.368252 Z M101.584946,109.309649 C100.151986,108.748008 97.3889801,109.10577 94.89307,110.084186 L94.89307,110.084186 L94.7391505,110.144427 C92.2522944,111.11936 91.3565434,112.251659 92.7424224,112.799571 C94.1753826,113.361213 96.9652488,112.992591 99.461159,112.01438 L99.461159,112.01438 L99.6120604,111.955163 C102.107971,110.976747 102.981086,109.856947 101.584946,109.309649 Z M64.8661845,102.043022 L69.1433355,103.719545 L68.2017104,104.088782 C67.4719509,104.375647 67.3056575,104.775004 67.830191,104.981548 L67.830191,104.981548 L76.3129656,108.306727 C76.8402153,108.512246 77.8581966,108.446471 78.5888614,108.160221 L78.5888614,108.160221 L79.5304865,107.790984 L83.8031105,109.466073 L78.0389765,111.725547 C76.685994,112.253994 74.8051582,112.374273 73.8303348,111.994791 L73.8303348,111.994791 L58.4148453,105.952177 C57.4469634,105.570031 57.7538969,104.832787 59.1017488,104.302496 L59.1017488,104.302496 L64.8661845,102.043022 Z M87.1802248,104.794122 L91.4576775,106.47085 L85.51216,108.801426 L81.2347073,107.124698 L87.1802248,104.794122 Z M79.9842472,96.1220589 C81.3369279,95.5938168 83.2174619,95.4733334 84.1925871,95.8530202 L84.1925871,95.8530202 L99.6077748,101.895634 C100.583504,102.276551 100.279286,103.016048 98.927511,103.547774 L98.927511,103.547774 L93.1630753,105.807249 L88.8838117,104.129701 L89.8254368,103.760874 C90.5561017,103.474418 90.7233005,103.075266 90.1993706,102.868723 L90.1993706,102.868723 L81.716596,99.5435432 C81.1890445,99.3380246 80.1707614,99.403184 79.4385876,99.6892298 L79.4385876,99.6892298 L78.4969624,100.058262 L74.2195097,98.3817384 Z M72.5139007,99.0451965 L76.7910516,100.721925 L70.8458359,103.052501 L66.5683832,101.375773 L72.5139007,99.0451965 Z" id="Isometric-Openstack" fill="#FFBA5E"></path>
                    <path d="M417.033335,127.478917 L408.616969,134.639837 L395.217593,135.767474 L417.033335,127.478917 Z M380.791682,124.067746 L399.919392,131.335434 L393.4761,135.106022 L380.791682,124.067746 Z M368.2375,118.266556 L415.291928,126.817751 L401.277377,130.819005 L368.2375,118.266556 Z M403.248108,115.765486 L419.748524,122.034003 L416.89824,123.117105 L400.397824,116.848017 L403.248108,115.765486 Z M419.137687,114.419916 C419.885616,114.51184 420.623132,114.689407 421.4049,114.94805 L418.958948,115.877565 C418.302124,115.65318 417.686081,115.560114 417.112553,115.598939 C416.55985,115.645186 416.026235,115.749671 415.57071,115.92267 C415.418,115.980337 415.28785,116.046568 415.141215,116.118508 C414.993711,116.191019 414.885253,116.264673 414.835796,116.348603 C414.787207,116.433104 414.776795,116.518177 414.826252,116.614097 C414.875709,116.709447 415.018006,116.802512 415.254879,116.892152 C415.556827,117.006914 415.877864,117.064581 416.217989,117.065723 C416.580674,117.075429 416.9503,117.049736 417.327735,116.987502 C417.70517,116.925839 418.132929,116.844763 418.557218,116.749414 C418.997125,116.647783 419.458724,116.554147 419.920322,116.46051 C420.399274,116.360593 420.89905,116.268669 421.404032,116.191019 C421.909014,116.113369 422.444365,116.073974 422.951082,116.060842 C423.478623,116.056274 424.016577,116.080825 424.571883,116.164184 C425.128057,116.246973 425.664275,116.387428 426.223053,116.599823 C427.019571,116.901859 427.547112,117.191904 427.831707,117.492226 C428.116301,117.792549 428.226495,118.078026 428.160552,118.348088 C428.078992,118.62443 427.86034,118.88707 427.482905,119.128584 C427.106337,119.369527 426.648209,119.593341 426.108521,119.797743 C425.568832,120.003287 424.964068,120.183709 424.307245,120.318454 C423.655627,120.468616 422.963229,120.551975 422.236125,120.582807 C421.508152,120.613638 420.741135,120.578239 419.950691,120.470328 C419.159379,120.361847 418.340301,120.16658 417.528166,119.870254 L419.97325,118.94131 C420.41576,119.083478 420.767165,119.178828 421.143732,119.231927 C421.5203,119.285596 421.865631,119.301012 422.206624,119.302725 C422.564103,119.297586 422.87386,119.261616 423.195764,119.204521 C423.518536,119.147425 423.776233,119.065779 424.028724,118.969858 C424.214405,118.89906 424.378393,118.820268 424.516352,118.719209 C424.654311,118.617579 424.775785,118.5228 424.797476,118.416032 C424.859081,118.310976 424.821771,118.194501 424.75149,118.090587 C424.65865,117.97868 424.489455,117.863347 424.188375,117.748585 C423.692937,117.560741 423.075158,117.517919 422.293391,117.618407 C421.550668,117.721179 420.567602,117.898175 419.420546,118.153963 C418.941594,118.254451 418.440951,118.346375 417.936837,118.424025 C417.431855,118.501104 416.917328,118.549635 416.410611,118.561625 C415.904761,118.574757 415.367676,118.550206 414.833193,118.47484 C414.29871,118.400045 413.784184,118.268725 413.246231,118.064323 C412.471404,117.76971 411.965555,117.48823 411.70699,117.210745 C411.448426,116.933261 411.364262,116.670622 411.47272,116.416547 C411.581179,116.163043 411.805037,115.914677 412.169457,115.694859 C412.55123,115.467619 412.975519,115.257508 413.481368,115.065096 C413.987218,114.872684 414.541657,114.711675 415.14295,114.580926 C415.744243,114.450748 416.359419,114.364534 417.048346,114.331418 C417.720788,114.304583 418.428803,114.330276 419.137687,114.419916 Z M419.430351,110.35306 L423.001667,111.709649 L424.874091,110.99881 L427.06842,111.832405 L425.195996,112.543815 L431.111747,114.791665 C431.671392,115.004061 432.104357,115.11711 432.449689,115.132526 C432.79502,115.149083 433.168117,115.072575 433.606288,114.905856 C433.758998,114.84819 433.893486,114.796804 434.00715,114.737425 C434.120815,114.678045 434.217126,114.625517 434.329922,114.565567 L436.868715,115.530481 C436.692578,115.629828 436.499089,115.736025 436.229244,115.838797 C435.981092,115.948991 435.728601,116.045483 435.475242,116.141403 C435.070042,116.29499 434.656165,116.419459 434.23795,116.530224 C433.818867,116.639847 433.369415,116.712359 432.88439,116.733484 C432.421056,116.762603 431.900456,116.7312 431.382459,116.649553 C430.865329,116.568478 430.285728,116.412607 429.683567,116.183654 L422.649394,113.511013 L421.097139,114.10081 L418.90281,113.267215 L420.455065,112.677418 L416.88375,111.320829 L419.430351,110.35306 Z M428.753602,109.524547 L440.693563,114.060786 L438.129608,115.034835 L426.189648,110.498596 L428.753602,109.524547 Z M440.255565,106.21746 C441.215204,106.261424 442.201741,106.393314 443.212572,106.597716 C444.223404,106.802689 445.184779,107.091022 446.153095,107.458717 C447.099719,107.818419 447.842442,108.189539 448.396881,108.567512 C448.935701,108.951194 449.261076,109.318318 449.398168,109.691151 C449.514435,110.055421 449.438948,110.411126 449.132662,110.755983 C448.843729,111.09513 448.297967,111.400591 447.556112,111.682643 C446.813389,111.964695 446.005591,112.157678 445.135322,112.275295 C444.24336,112.384918 443.32884,112.42203 442.347509,112.370073 C441.38787,112.32611 440.401333,112.194219 439.390501,111.989817 C438.379669,111.784844 437.418295,111.496512 436.471671,111.13681 C435.525046,110.777679 434.760632,110.397423 434.206193,110.019451 C433.667372,109.635769 433.321173,109.260651 433.204906,108.896382 C433.088638,108.531542 433.164125,108.175836 433.453926,107.83726 C433.742859,107.498113 434.249576,107.190939 434.992299,106.909458 C435.734154,106.627406 436.542819,106.434423 437.451266,106.318519 C438.34236,106.208896 439.295925,106.173497 440.255565,106.21746 Z M438.906343,107.563772 C438.387478,107.596888 437.905056,107.683102 437.466016,107.84925 C437.026977,108.015969 436.78056,108.191252 436.731103,108.390516 C436.659087,108.580644 436.724162,108.785046 436.900298,108.979741 C437.075566,109.175008 437.348881,109.381123 437.754949,109.586667 C438.161017,109.792211 438.579233,109.976629 439.052111,110.15648 C439.508504,110.342611 440.032574,110.50305 440.551439,110.649214 C441.071171,110.795379 441.614331,110.898722 442.148813,110.974088 C442.683296,111.048883 443.199557,111.065441 443.701069,111.038606 C444.20258,111.0112 444.681532,110.910712 445.103218,110.750844 C445.524904,110.590406 445.788675,110.408842 445.877177,110.211292 C445.965679,110.014883 445.904942,109.825326 445.724467,109.615214 C445.527507,109.412525 445.254192,109.206411 444.869816,109.00886 C444.485439,108.81131 444.045532,108.618898 443.572654,108.439047 C443.099776,108.259196 442.592191,108.091906 442.072459,107.946312 C441.553594,107.800148 441.009567,107.696234 440.475952,107.621439 C439.963161,107.554637 439.425208,107.530086 438.906343,107.563772 Z M424.197485,107.806543 L426.908076,108.836546 L424.344121,109.810595 L424.322429,109.802031 L421.63353,108.780592 L424.197485,107.806543 Z" id="Isometric-Istio" fill="#FFBA5E"></path>
                </g>
                <g id="Connection" transform="translate(0.000000, 57.000000)" fill-opacity="0.32">
                    <polygon id="Path-20" fill="url(#linearGradient-1)" points="97.9 183.269896 97.9 36.6539792 267 100.055457 436.1 36.6539792 436.1 183.269896 267 246.671374"></polygon>
                    <polygon id="Y" fill="url(#linearGradient-2)" points="195.8 293.321893 195.8 146.705976 267 173.363415 338.2 146.705976 338.2 293.321893 267 319.979332"></polygon>
                    <polygon id="Path-19" fill="url(#linearGradient-3)" transform="translate(120.150000, 177.898017) scale(-1, 1) translate(-120.150000, -177.898017) " points="71.2 282.398017 1.70530257e-13 255.858335 1.70530257e-13 109.890081 71.2 136.429763 240.3 73.3980174 240.3 219.366271"></polygon>
                    <polygon id="Path-19" fill="url(#linearGradient-4)" points="364.811111 281.398017 293.7 254.985319 293.7 109.715478 364.811111 136.128176 533.7 73.3980174 533.7 218.667859"></polygon>
                    <polygon id="B" fill="url(#linearGradient-5)" points="195.8 293.321893 195.8 146.705976 267 173.363415 338.2 146.705976 338.2 293.321893 267 319.979332"></polygon>
                    <polygon id="B" fill="url(#linearGradient-5)" points="195.8 146.705976 195.8 0.090058917 267 26.7474984 338.2 0.090058917 338.2 146.705976 267 173.363415"></polygon>
                    <polygon id="B" fill="url(#linearGradient-5)" points="97.9 183.359955 97.9 36.7440382 169.1 63.4014776 240.3 36.7440382 240.3 183.359955 169.1 210.017395"></polygon>
                    <polygon id="B" fill="url(#linearGradient-5)" points="293.7 183.269896 293.7 36.6539792 364.9 63.3114187 436.1 36.6539792 436.1 183.269896 364.9 209.927336"></polygon>
                    <polygon id="B" fill="url(#linearGradient-6)" points="97.9 255.590458 97.9 110.051997 169.1 136.513535 240.3 110.051997 240.3 255.590458 169.1 282.051997"></polygon>
                    <polygon id="B" fill="url(#linearGradient-5)" points="293.7 256.577855 293.7 109.961938 364.9 136.619377 436.1 109.961938 436.1 256.577855 364.9 283.235294"></polygon>
                    <polygon id="B" fill="url(#linearGradient-5)" points="391.6 219.923875 391.6 73.3079585 462.8 99.9653979 534 73.3079585 534 218.595506 462.8 246.581315"></polygon>
                    <polygon id="B" fill="url(#linearGradient-5)" points="0 219.923875 0 73.3079585 71.2 99.9653979 142.4 73.3079585 142.4 219.923875 71.2 246.581315"></polygon>
                </g>
                <g id="Cubes-Blue">
                    <g id="cube" transform="translate(196.000000, 0.000000)">
                        <polygon id="fill" fill-opacity="0.92" fill="#0D0D28" points="0 26.5263158 71 0 142 26.5263158 142 57.4736842 71 84 0 57.4736842"></polygon>
                        <polyline id="Path" stroke="#005992" stroke-width="0.4" points="0 57.4736842 0 57.4736842 71 30.9473684 142 57.4736842"></polyline>
                        <line x1="71" y1="0" x2="71" y2="30.9473684" id="Path-115" stroke="#005992" stroke-width="0.4"></line>
                        <polyline id="Path-54" stroke="#00ABE8" points="0 26.5263158 71 53.0526316 142 26.5263158"></polyline>
                        <line x1="71" y1="84" x2="71" y2="53.0526316" id="Path-114" stroke="#00ABE8" fill="#02022B"></line>
                        <polygon id="border" stroke="#00ABE8" points="0 26.5263158 71 0 142 26.5263158 142 57.4736842 71 84 0 57.4736842"></polygon>
                    </g>
                    <g id="cube" transform="translate(98.000000, 37.000000)">
                        <polygon id="fill" fill-opacity="0.92" fill="#0D0D28" points="0 26.5263158 71 0 142 26.5263158 142 57.4736842 71 84 0 57.4736842"></polygon>
                        <polyline id="Path" stroke="#005992" stroke-width="0.4" points="0 57.4736842 0 57.4736842 71 30.9473684 142 57.4736842"></polyline>
                        <line x1="71" y1="0" x2="71" y2="30.9473684" id="Path-115" stroke="#005992" stroke-width="0.4"></line>
                        <polyline id="Path-54" stroke="#00ABE8" points="0 26.5263158 71 53.0526316 142 26.5263158"></polyline>
                        <line x1="71" y1="84" x2="71" y2="53.0526316" id="Path-114" stroke="#00ABE8" fill="#02022B"></line>
                        <polygon id="border" stroke="#00ABE8" points="0 26.5263158 71 0 142 26.5263158 142 57.4736842 71 84 0 57.4736842"></polygon>
                    </g>
                    <g id="cube" transform="translate(294.000000, 37.000000)">
                        <polygon id="fill" fill-opacity="0.92" fill="#0D0D28" points="0 26.5263158 71 0 142 26.5263158 142 57.4736842 71 84 0 57.4736842"></polygon>
                        <polyline id="Path" stroke="#005992" stroke-width="0.4" points="0 57.4736842 0 57.4736842 71 30.9473684 142 57.4736842"></polyline>
                        <line x1="71" y1="0" x2="71" y2="30.9473684" id="Path-115" stroke="#005992" stroke-width="0.4"></line>
                        <polyline id="Path-54" stroke="#00ABE8" points="0 26.5263158 71 53.0526316 142 26.5263158"></polyline>
                        <line x1="71" y1="84" x2="71" y2="53.0526316" id="Path-114" stroke="#00ABE8" fill="#02022B"></line>
                        <polygon id="border" stroke="#00ABE8" points="0 26.5263158 71 0 142 26.5263158 142 57.4736842 71 84 0 57.4736842"></polygon>
                    </g>
                    <g id="cube" transform="translate(196.000000, 73.000000)">
                        <polygon id="fill" fill-opacity="0.92" fill="#0D0D28" points="0 26.5263158 71 0 142 26.5263158 142 57.4736842 71 84 0 57.4736842"></polygon>
                        <polyline id="Path" stroke="#005992" stroke-width="0.4" points="0 57.4736842 0 57.4736842 71 30.9473684 142 57.4736842"></polyline>
                        <line x1="71" y1="0" x2="71" y2="30.9473684" id="Path-115" stroke="#005992" stroke-width="0.4"></line>
                        <polyline id="Path-54" stroke="#00ABE8" points="0 26.5263158 71 53.0526316 142 26.5263158"></polyline>
                        <line x1="71" y1="84" x2="71" y2="53.0526316" id="Path-114" stroke="#00ABE8" fill="#02022B"></line>
                        <polygon id="border" stroke="#00ABE8" points="0 26.5263158 71 0 142 26.5263158 142 57.4736842 71 84 0 57.4736842"></polygon>
                    </g>
                    <g id="cube" transform="translate(0.000000, 73.000000)">
                        <polygon id="fill" fill-opacity="0.92" fill="#0D0D28" points="0 26.5263158 71 0 142 26.5263158 142 57.4736842 71 84 0 57.4736842"></polygon>
                        <polyline id="Path" stroke="#005992" stroke-width="0.4" points="0 57.4736842 0 57.4736842 71 30.9473684 142 57.4736842"></polyline>
                        <line x1="71" y1="0" x2="71" y2="30.9473684" id="Path-115" stroke="#005992" stroke-width="0.4"></line>
                        <polyline id="Path-54" stroke="#00ABE8" points="0 26.5263158 71 53.0526316 142 26.5263158"></polyline>
                        <line x1="71" y1="84" x2="71" y2="53.0526316" id="Path-114" stroke="#00ABE8" fill="#02022B"></line>
                        <polygon id="border" stroke="#00ABE8" points="0 26.5263158 71 0 142 26.5263158 142 57.4736842 71 84 0 57.4736842"></polygon>
                    </g>
                    <g id="cube" transform="translate(392.000000, 73.000000)">
                        <polygon id="fill" fill-opacity="0.92" fill="#0D0D28" points="0 26.5263158 71 0 142 26.5263158 142 57.4736842 71 84 0 57.4736842"></polygon>
                        <polyline id="Path" stroke="#005992" stroke-width="0.4" points="0 57.4736842 0 57.4736842 71 30.9473684 142 57.4736842"></polyline>
                        <line x1="71" y1="0" x2="71" y2="30.9473684" id="Path-115" stroke="#005992" stroke-width="0.4"></line>
                        <polyline id="Path-54" stroke="#00ABE8" points="0 26.5263158 71 53.0526316 142 26.5263158"></polyline>
                        <line x1="71" y1="84" x2="71" y2="53.0526316" id="Path-114" stroke="#00ABE8" fill="#02022B"></line>
                        <polygon id="border" stroke="#00ABE8" points="0 26.5263158 71 0 142 26.5263158 142 57.4736842 71 84 0 57.4736842"></polygon>
                    </g>
                    <g id="cube" transform="translate(98.000000, 110.000000)">
                        <polygon id="fill" fill-opacity="0.92" fill="#0D0D28" points="0 26.5263158 71 0 142 26.5263158 142 57.4736842 71 84 0 57.4736842"></polygon>
                        <polyline id="Path" stroke="#005992" stroke-width="0.4" points="0 57.4736842 0 57.4736842 71 30.9473684 142 57.4736842"></polyline>
                        <line x1="71" y1="0" x2="71" y2="30.9473684" id="Path-115" stroke="#005992" stroke-width="0.4"></line>
                        <polyline id="Path-54" stroke="#00ABE8" points="0 26.5263158 71 53.0526316 142 26.5263158"></polyline>
                        <line x1="71" y1="84" x2="71" y2="53.0526316" id="Path-114" stroke="#00ABE8" fill="#02022B"></line>
                        <polygon id="border" stroke="#00ABE8" points="0 26.5263158 71 0 142 26.5263158 142 57.4736842 71 84 0 57.4736842"></polygon>
                    </g>
                    <g id="cube" transform="translate(294.000000, 110.000000)">
                        <polygon id="fill" fill-opacity="0.92" fill="#0D0D28" points="0 26.5263158 71 0 142 26.5263158 142 57.4736842 71 84 0 57.4736842"></polygon>
                        <polyline id="Path" stroke="#005992" stroke-width="0.4" points="0 57.4736842 0 57.4736842 71 30.9473684 142 57.4736842"></polyline>
                        <line x1="71" y1="0" x2="71" y2="30.9473684" id="Path-115" stroke="#005992" stroke-width="0.4"></line>
                        <polyline id="Path-54" stroke="#00ABE8" points="0 26.5263158 71 53.0526316 142 26.5263158"></polyline>
                        <line x1="71" y1="84" x2="71" y2="53.0526316" id="Path-114" stroke="#00ABE8" fill="#02022B"></line>
                        <polygon id="border" stroke="#00ABE8" points="0 26.5263158 71 0 142 26.5263158 142 57.4736842 71 84 0 57.4736842"></polygon>
                    </g>
                    <g id="cube" transform="translate(196.000000, 147.000000)">
                        <polygon id="fill" fill-opacity="0.883932474" fill="#0D0D28" points="0 26.5263158 71 0 142 26.5263158 142 57.4736842 71 84 0 57.4736842"></polygon>
                        <polyline id="Path" stroke="#005992" stroke-width="0.4" points="0 57.4736842 0 57.4736842 71 30.9473684 142 57.4736842"></polyline>
                        <line x1="71" y1="0" x2="71" y2="30.9473684" id="Path-115" stroke="#005992" stroke-width="0.4"></line>
                        <polyline id="Path-54" stroke="#00ABE8" points="0 26.5263158 71 53.0526316 142 26.5263158"></polyline>
                        <line x1="71" y1="84" x2="71" y2="53.0526316" id="Path-114" stroke="#00ABE8" fill="#02022B"></line>
                        <polygon id="border" stroke="#00ABE8" points="0 26.5263158 71 0 142 26.5263158 142 57.4736842 71 84 0 57.4736842"></polygon>
                    </g>
                </g>
            </g>
        </g>
    </g>
</svg>