<?xml version="1.0" encoding="UTF-8"?>
<svg width="190px" height="29px" viewBox="0 0 190 29" version="1.1" xmlns="http://www.w3.org/2000/svg" xmlns:xlink="http://www.w3.org/1999/xlink">
    <title>p9 logo</title>
    <g id="Symbols" stroke="none" stroke-width="1" fill="none" fill-rule="evenodd">
        <g id="Nav/1440/Default" transform="translate(-120.000000, -42.000000)" fill-rule="nonzero">
            <g id="p9-logo" transform="translate(120.000000, 42.000000)">
                <path d="M184.733945,7.23853211 C181.825688,7.23853211 179.46789,9.5412844 179.46789,12.3669725 C179.46789,15 181.568807,17.2568807 184.165138,17.5045872 L182.633028,19.6146789 C182.412844,19.9266055 182.376147,20.3119266 182.53211,20.6238532 C182.697248,20.9449541 183.027523,21.1284404 183.412844,21.1284404 L184.192661,21.1284404 C184.642202,21.1284404 185.119266,20.8807339 185.385321,20.5229358 L188.715596,15.8440367 C188.853211,15.6513761 189.027523,15.3577982 189.12844,15.1651376 C189.211009,15 189.963303,13.5412844 189.963303,12.4495413 C189.963303,9.53211009 187.669725,7.23853211 184.733945,7.23853211 Z M182.201835,12.3853211 C182.201835,11.0275229 183.33945,9.9266055 184.724771,9.9266055 C186.100917,9.9266055 187.220183,11.0275229 187.220183,12.3853211 C187.220183,13.7431193 186.100917,14.8440367 184.724771,14.8440367 C183.366972,14.8440367 182.201835,13.7155963 182.201835,12.3853211 Z" id="Shape" fill="#23A7E0"></path>
                <path d="M93.3577982,8.09174312 C93.146789,7.52293578 92.706422,7.4587156 92.5229358,7.4587156 L91.587156,7.4587156 C91.0550459,7.4587156 90.8256881,7.89908257 90.7522936,8.05504587 L85.1559633,19.8807339 C84.9724771,20.2201835 84.9633028,20.5229358 85.1192661,20.7798165 C85.2568807,21 85.4862385,21.1284404 85.7522936,21.1284404 L86.8440367,21.1284404 C87.2293578,21.1284404 87.4954128,20.9816514 87.6422018,20.6972477 C87.6880734,20.5963303 87.7247706,20.5229358 87.7614679,20.440367 L88.8715596,18.0550459 L95.2201835,18.0642202 L96.3577982,20.4862385 C96.5412844,20.9082569 96.8440367,21.1192661 97.2477064,21.1192661 L98.3944954,21.1192661 C98.6697248,21.1192661 98.9082569,20.9908257 99.0458716,20.7706422 C99.1834862,20.5504587 99.1926606,20.2752294 99.0733945,20.0275229 L93.3577982,8.09174312 L93.3577982,8.09174312 Z M90.0091743,15.6238532 L92.0550459,11.293578 L94.0825688,15.6238532 L90.0091743,15.6238532 Z M82.3486239,19.3027523 C82.3119266,19.0550459 82.1651376,18.8256881 81.9633028,18.6880734 C81.7981651,18.5779817 81.6055046,18.5504587 81.4587156,18.5504587 L75.5321101,18.5504587 L75.5321101,8.23853211 C75.5321101,7.76146789 75.2018349,7.43119266 74.7247706,7.43119266 L73.7522936,7.43119266 C73.2385321,7.43119266 72.9082569,7.75229358 72.9082569,8.25688073 L72.9082569,20.266055 C72.9082569,20.7614679 73.2752294,21.1284404 73.7706422,21.1284404 L81.5963303,21.1284404 C81.8990826,21.1284404 82.4036697,21.0183486 82.4036697,20.2477064 L82.3486239,19.3027523 L82.3486239,19.3027523 Z M64.4678899,7.4587156 L58.7798165,7.4587156 C58.1926606,7.4587156 57.8165138,7.86238532 57.8165138,8.47706422 L57.8165138,20.2752294 C57.8165138,20.7706422 58.1834862,21.1376147 58.6788991,21.1376147 L59.5688073,21.1376147 C60.1100917,21.1376147 60.4311927,20.7981651 60.4311927,20.2293578 L60.4311927,15.4862385 L64.7247706,15.4862385 C67.266055,15.4862385 69.0366972,13.8256881 69.0366972,11.4495413 C69.0366972,9.4587156 67.6238532,7.4587156 64.4678899,7.4587156 Z M60.440367,9.89908257 L64.4678899,9.89908257 C65.1376147,9.89908257 65.6788991,10.0917431 66.0366972,10.4495413 C66.3027523,10.7247706 66.4495413,11.0825688 66.440367,11.4495413 C66.412844,12.2385321 65.7889908,13.0275229 64.4678899,13.0275229 L60.440367,13.0275229 L60.440367,9.89908257 Z M111.66055,7.44036697 L98.9449541,7.44036697 C98.5688073,7.44036697 98.1559633,7.65137615 98.1559633,8.24770642 L98.1559633,9.08256881 C98.1559633,9.86238532 98.7889908,9.9266055 98.9816514,9.9266055 L104.009174,9.9266055 L104.009174,20.2844037 C104.009174,20.7981651 104.348624,21.146789 104.853211,21.146789 L105.807339,21.146789 C106.055046,21.146789 106.633028,21.0642202 106.633028,20.2844037 L106.633028,9.91743119 L111.642202,9.91743119 C112.137615,9.91743119 112.486239,9.58715596 112.486239,9.11009174 L112.486239,8.22018349 C112.486239,7.82568807 112.238532,7.44036697 111.66055,7.44036697 L111.66055,7.44036697 Z M157.477064,19.853211 C156.798165,19.0366972 155.633028,17.6330275 153.853211,15.4678899 C156.192661,15.3119266 157.788991,13.6972477 157.788991,11.4495413 C157.788991,9.4587156 156.376147,7.4587156 153.220183,7.4587156 L147.53211,7.4587156 C146.944954,7.4587156 146.568807,7.86238532 146.568807,8.47706422 L146.568807,20.2752294 C146.568807,20.7706422 146.93578,21.1376147 147.431193,21.1376147 L148.321101,21.1376147 C148.862385,21.1376147 149.183486,20.7981651 149.183486,20.2293578 L149.183486,15.4862385 L150.46789,15.4862385 C151.220183,16.4036697 153.211009,18.8440367 154.779817,20.7247706 L154.798165,20.7431193 L154.816514,20.7614679 C154.880734,20.8256881 155.238532,21.1284404 155.706422,21.1284404 L156.908257,21.1284404 C157.33945,21.1284404 157.614679,20.9908257 157.743119,20.7247706 C157.844037,20.5045872 157.807339,20.2477064 157.642202,20.0458716 L157.477064,19.853211 L157.477064,19.853211 Z M149.192661,9.89908257 L153.220183,9.89908257 C153.889908,9.89908257 154.431193,10.0917431 154.788991,10.4495413 C155.055046,10.7247706 155.201835,11.0825688 155.192661,11.4495413 C155.165138,12.2385321 154.541284,13.0275229 153.220183,13.0275229 L149.192661,13.0275229 L149.192661,9.89908257 Z M126.06422,7.44036697 L116.247706,7.44036697 C115.733945,7.44036697 115.321101,7.85321101 115.321101,8.3853211 L115.321101,20.3302752 C115.321101,20.7798165 115.66055,21.1376147 116.082569,21.1376147 L117.12844,21.1376147 C117.559633,21.1376147 117.908257,20.7889908 117.908257,20.3577982 L117.908257,15.4678899 L124.688073,15.4678899 C125.119266,15.4678899 125.449541,15.1284404 125.449541,14.6880734 L125.449541,13.7155963 C125.449541,13.2844037 125.110092,12.9541284 124.688073,12.9541284 L117.908257,12.9633028 L117.908257,9.96330275 L125.972477,9.96330275 C126.394495,9.96330275 126.715596,9.67889908 126.807339,9.24770642 L126.816514,9.21100917 L126.825688,8.3853211 C126.862385,8.16513761 126.798165,7.9266055 126.651376,7.74311927 C126.522936,7.5412844 126.302752,7.44036697 126.06422,7.44036697 L126.06422,7.44036697 Z M174.266055,7.4587156 L173.449541,7.4587156 C172.990826,7.4587156 172.724771,7.67889908 172.568807,7.8440367 L168.348624,12.1284404 L164.045872,7.7706422 L164.018349,7.75229358 C163.798165,7.55963303 163.53211,7.4587156 163.238532,7.4587156 L162.477064,7.4587156 C162.009174,7.4587156 161.688073,7.77981651 161.688073,8.26605505 L161.688073,20.293578 C161.688073,20.7981651 162.009174,21.1376147 162.495413,21.1376147 L163.486239,21.1376147 C163.990826,21.1376147 164.330275,20.7889908 164.330275,20.2752294 L164.330275,11.9449541 L167.46789,15.0550459 C167.633028,15.2752294 167.93578,15.4862385 168.330275,15.4862385 C168.724771,15.4862385 169.027523,15.2844037 169.174312,15.0917431 L172.348624,11.9357798 L172.348624,20.3119266 C172.348624,20.7798165 172.697248,21.1376147 173.146789,21.1376147 L174.155963,21.1376147 C174.568807,21.1376147 175,20.8348624 175,20.2752294 L175,8.32110092 C175.009174,7.8440367 174.733945,7.52293578 174.266055,7.4587156 L174.266055,7.4587156 Z M135.889908,7.08256881 C131.779817,7.08256881 128.440367,10.293578 128.440367,14.2477064 C128.440367,18.2018349 131.779817,21.412844 135.889908,21.412844 C140.009174,21.412844 143.357798,18.1926606 143.357798,14.2477064 C143.357798,10.293578 140.009174,7.08256881 135.889908,7.08256881 Z M135.889908,18.7706422 C133.238532,18.7706422 131.082569,16.7431193 131.082569,14.2385321 C131.082569,11.7431193 133.238532,9.70642202 135.889908,9.70642202 C138.550459,9.70642202 140.715596,11.733945 140.715596,14.2385321 C140.715596,16.7431193 138.550459,18.7706422 135.889908,18.7706422 Z" id="Shape" fill="#FFFFFF"></path>
                <path d="M52.4678899,10.733945 L44.4495413,7.44954128 L42.9541284,6.83486239 L36.2018349,4.0733945 L34.6972477,3.4587156 C34.6972477,3.4587156 26.6330275,0.183486239 26.5137615,0.119266055 C26.3853211,0.0550458716 26.2110092,0.119266055 26.2110092,0.119266055 L18.0733945,3.44954128 L16.5779817,4.06422018 L9.75229358,6.85321101 L8.25688073,7.46788991 L0.155963303,10.7889908 C0.155963303,10.7889908 0.0183486239,10.853211 0.137614679,10.9082569 C0.174311927,10.9266055 4.26605505,12.6055046 9.21100917,14.6238532 C16.2293578,17.4954128 24.9541284,21.0642202 26.2110092,21.5779817 C26.3211009,21.6146789 26.412844,21.6238532 26.5045872,21.587156 C27.6880734,21.1009174 36.3577982,17.559633 43.3577982,14.6880734 C48.2477064,12.6880734 52.3302752,11.0275229 52.4587156,10.9816514 C52.7431193,10.8440367 52.4678899,10.733945 52.4678899,10.733945 M41.4311927,7.46788991 L34.6880734,10.2293578 L34.6788991,10.2293578 L27.9174312,7.46788991 L34.6697248,4.70642202 L41.4311927,7.46788991 L41.4311927,7.46788991 Z M33.1834862,10.8440367 L26.3761468,13.6238532 L19.6146789,10.8715596 L26.4220183,8.08256881 L33.1834862,10.8440367 L33.1834862,10.8440367 Z M26.3669725,1.31192661 L33.1651376,4.09174312 L26.4220183,6.86238532 L19.6055046,4.0733945 L26.3669725,1.31192661 Z M18.1100917,4.67889908 L24.9174312,7.46788991 L18.1192661,10.2568807 L11.2844037,7.46788991 L18.1100917,4.67889908 L18.1100917,4.67889908 Z M3.04587156,10.8440367 L9.79816514,8.08256881 L16.6330275,10.8715596 L9.87155963,13.6330275 L3.04587156,10.8440367 L3.04587156,10.8440367 Z M11.3669725,14.2477064 L18.1192661,11.4862385 L24.8807339,14.2477064 L18.1192661,17.0091743 L11.3669725,14.2477064 Z M26.3669725,20.3761468 L19.6146789,17.6146789 L26.3761468,14.8440367 L26.3853211,14.8440367 L33.1376147,17.6055046 L26.3669725,20.3761468 L26.3669725,20.3761468 Z M34.6330275,16.9908257 L27.8807339,14.2293578 L34.6880734,11.4495413 L41.4495413,14.2018349 L34.6330275,16.9908257 L34.6330275,16.9908257 Z M42.9449541,13.5963303 L36.1834862,10.8440367 L42.9266055,8.08256881 L49.6788991,10.8440367 L42.9449541,13.5963303 Z" id="Shape" fill="#23A7E0"></path>
                <path d="M33.1834862,10.8440367 L26.3761468,13.6238532 L19.6146789,10.8715596 L26.4220183,8.08256881 L33.1834862,10.8440367 Z M41.4495413,14.2018349 L34.6330275,16.9908257 L27.8715596,14.2293578 L34.6880734,11.4495413 L41.4495413,14.2018349 Z M33.1376147,17.6055046 L26.3669725,20.3761468 L19.6146789,17.6146789 L26.3761468,14.8440367 L26.3853211,14.8440367 L33.1376147,17.6055046 Z" id="Shape" fill="#1C8CC9"></path>
                <path d="M51.5412844,18.0275229 L26.1926606,28.3944954 L0.825688073,18.0275229 L9.19266055,14.6055046 C16.2110092,17.4770642 24.9357798,21.0458716 26.1926606,21.559633 C26.3027523,21.5963303 26.3944954,21.6055046 26.4862385,21.5688073 C27.6697248,21.0825688 36.3394495,17.5412844 43.3394495,14.6697248 L51.5412844,18.0275229 Z" id="Path" fill="#0D7DB7"></path>
                <polygon id="Path" fill="#6CCDEE" points="16.6238532 10.8715596 9.87155963 13.6330275 3.04587156 10.8440367 9.79816514 8.08256881"></polygon>
                <polygon id="Path" fill="#1C8CC9" points="24.8807339 14.2477064 18.1192661 17 11.3669725 14.2477064 18.1192661 11.4862385"></polygon>
                <path d="M24.9174312,7.46788991 L18.1192661,10.2568807 L11.2844037,7.46788991 L18.1100917,4.67889908 L24.9174312,7.46788991 Z M33.1651376,4.09174312 L26.4220183,6.86238532 L19.6055046,4.0733945 L26.3669725,1.31192661 L33.1651376,4.09174312 Z M41.4311927,7.46788991 L34.6880734,10.2293578 L34.6788991,10.2293578 L27.9174312,7.46788991 L34.6697248,4.70642202 L41.4311927,7.46788991 Z M49.6788991,10.8440367 L42.9449541,13.5963303 L36.1834862,10.8440367 L42.9266055,8.08256881 L49.6788991,10.8440367 Z" id="Shape" fill="#6CCDEE"></path>
            </g>
        </g>
    </g>
</svg>