<?xml version="1.0" encoding="UTF-8"?>
<svg width="31px" height="32px" viewBox="0 0 31 32" version="1.1" xmlns="http://www.w3.org/2000/svg" xmlns:xlink="http://www.w3.org/1999/xlink">
    <title>Group</title>
    <g id="Page-1" stroke="none" stroke-width="1" fill="none" fill-rule="evenodd">
        <g id="Edge-V3" transform="translate(-1244.000000, -478.000000)" fill="#0FB4EA" fill-rule="nonzero">
            <g id="Landing-Section" transform="translate(-112.000000, 0.000000)">
                <g id="Edge-Diagram-Final_Expanded" transform="translate(573.000000, 170.000000)">
                    <g id="Logos" transform="translate(408.000000, 35.000000)">
                        <g id="Group" transform="translate(375.093987, 273.658537)">
                            <path d="M14.8661103,12.2317073 C14.590812,12.2317073 14.246689,12.1626016 14.0402153,12.0934959 L1.51414086,6.84146341 C0.963544186,6.63414634 0.963544186,6.2195122 0.963544186,6.08130081 C0.963544186,5.94308943 1.03236877,5.52845528 1.58296545,5.32113821 L14.0402153,0.276422764 C14.5219874,0.0691056911 15.2102332,0.0691056911 15.6920053,0.276422764 L28.2180797,5.45934959 C28.7686764,5.66666667 28.7686764,6.08130081 28.7686764,6.2195122 C28.7686764,6.35772358 28.6998518,6.77235772 28.2180797,6.9796748 L15.7608299,12.1626016 C15.4855316,12.1626016 15.1414086,12.2317073 14.8661103,12.2317073 Z M2.40886046,6.08130081 L14.3843382,11.1260163 C14.590812,11.195122 15.0037595,11.195122 15.2790578,11.1260163 L27.185711,6.2195122 L15.2102332,1.24390244 C15.0037595,1.17479675 14.5219874,1.17479675 14.3155136,1.24390244 L2.40886046,6.08130081 Z M1.85826379,5.87398374 L1.72061462,6.35772358 L1.85826379,5.87398374 C1.85826379,5.87398374 1.85826379,5.87398374 1.85826379,5.87398374 Z" id="Shape"></path>
                            <path d="M24.0197801,15.7560976 C23.8133063,15.8943089 23.6068325,15.7560976 23.6068325,15.5487805 C23.538008,15.2723577 23.6756571,14.995935 23.8821309,14.8577236 C24.0886046,14.7195122 24.2950784,14.8577236 24.2950784,15.0650407 C24.363903,15.3414634 24.2262538,15.6178862 24.0197801,15.7560976 M23.7444817,13.9593496 C23.1250605,14.304878 22.7121129,15.203252 22.8497621,15.9634146 C22.9874113,16.7235772 23.538008,17 24.1574292,16.6544715 C24.7768505,16.3089431 25.189798,15.4105691 25.0521488,14.6504065 C24.9144997,13.9593496 24.363903,13.6138211 23.7444817,13.9593496" id="Shape"></path>
                            <path d="M24.0197801,23.3577236 C23.8133063,23.495935 23.6068325,23.3577236 23.6068325,23.1504065 C23.538008,22.8739837 23.6756571,22.597561 23.8821309,22.4593496 C24.0886046,22.3211382 24.2950784,22.4593496 24.2950784,22.6666667 C24.363903,22.9430894 24.2262538,23.2195122 24.0197801,23.3577236 M23.7444817,21.5609756 C23.1250605,21.9065041 22.7121129,22.804878 22.8497621,23.5650407 C22.9874113,24.3252033 23.538008,24.601626 24.1574292,24.2560976 C24.7768505,23.9105691 25.189798,23.0121951 25.0521488,22.2520325 C24.9144997,21.4918699 24.363903,21.2154472 23.7444817,21.5609756" id="Shape"></path>
                            <path d="M5.50596678,23.3577236 C5.29949302,23.2195122 5.16184385,22.9430894 5.23066844,22.6666667 C5.29949302,22.3902439 5.43714219,22.3211382 5.64361594,22.4593496 C5.8500897,22.597561 5.98773887,22.8739837 5.91891428,23.1504065 C5.91891428,23.3577236 5.71244053,23.4268293 5.50596678,23.3577236 M5.78126511,21.5609756 C5.16184385,21.2154472 4.61124717,21.5609756 4.47359801,22.2520325 C4.33594884,23.0121951 4.74889634,23.9105691 5.36831761,24.2560976 C5.98773887,24.601626 6.53833555,24.2560976 6.67598472,23.5650407 C6.81363388,22.804878 6.40068638,21.9065041 5.78126511,21.5609756" id="Shape"></path>
                            <path d="M1.23884252,17.8292683 C1.03236877,17.6910569 0.894719601,17.4146341 0.963544186,17.1382114 C1.03236877,16.8617886 1.17001794,16.7926829 1.37649169,16.9308943 C1.58296545,17.0691057 1.72061462,17.3455285 1.65179003,17.6219512 C1.65179003,17.8292683 1.44531628,17.9674797 1.23884252,17.8292683 M1.51414086,16.0325203 C0.894719601,15.6869919 0.344122923,16.0325203 0.206473754,16.7235772 C0.0688245847,17.4837398 0.481772093,18.3821138 1.10119336,18.7276423 C1.72061462,19.0731707 2.27121129,18.7276423 2.40886046,18.0365854 C2.54650963,17.2764228 2.13356213,16.3780488 1.51414086,16.0325203" id="Shape"></path>
                            <path d="M14.7284611,30.6829268 C14.4531628,30.6829268 14.1090399,30.6138211 13.9025661,30.5447154 L1.65179003,25.5691057 C1.10119336,25.3617886 0.688245847,24.7398374 0.688245847,24.1178862 L0.688245847,21.2154472 C0.688245847,20.9390244 0.894719601,20.6626016 1.23884252,20.6626016 C1.58296545,20.6626016 1.7894392,20.8699187 1.7894392,21.2154472 L1.7894392,24.1178862 C1.7894392,24.2560976 1.92708837,24.5325203 2.13356213,24.601626 L14.3843382,29.5772358 C14.590812,29.6463415 15.072584,29.6463415 15.2790578,29.5772358 L28.0804306,24.601626 C28.2180797,24.5325203 28.4245535,24.3252033 28.4245535,24.1178862 L28.4245535,21.0081301 C28.4245535,20.7317073 28.6310272,20.4552846 28.9751502,20.4552846 C29.3192731,20.4552846 29.5257468,20.6626016 29.5257468,21.0081301 L29.5257468,24.1178862 C29.5257468,24.7398374 29.1127993,25.2926829 28.5622026,25.5691057 L15.7608299,30.5447154 C15.2790578,30.6138211 15.0037595,30.6829268 14.7284611,30.6829268 Z" id="Path"></path>
                            <path d="M14.8661103,23.2886179 C14.590812,23.2886179 14.246689,23.2195122 14.0402153,23.1504065 L1.99591296,18.2439024 L2.40886046,17.2764228 L14.4531628,22.1829268 C14.6596365,22.2520325 15.1414086,22.2520325 15.3478824,22.1829268 L27.9427814,17 C28.0804306,16.9308943 28.2869043,16.7235772 28.2869043,16.5162602 L28.2869043,10.504065 L15.5543561,15.5487805 C15.072584,15.7560976 14.3843382,15.7560976 13.9025661,15.5487805 L1.51414086,10.5731707 L1.51414086,12.9227642 C1.51414086,13.0609756 1.65179003,13.3373984 1.85826379,13.4065041 L14.4531628,18.3821138 C14.6596365,18.4512195 15.1414086,18.4512195 15.3478824,18.3821138 L23.1250605,15.3414634 L23.4691834,16.3089431 L15.6920053,19.3495935 C15.2102332,19.5569106 14.5219874,19.5569106 14.0402153,19.3495935 L1.44531628,14.3739837 C0.894719601,14.1666667 0.481772093,13.5447154 0.481772093,12.9227642 L0.481772093,10.504065 C0.481772093,10.1585366 0.619421262,9.81300813 0.894719601,9.67479675 C1.17001794,9.46747967 1.51414086,9.46747967 1.85826379,9.60569106 L14.3155136,14.6504065 C14.5219874,14.7195122 15.0037595,14.7195122 15.2102332,14.6504065 L28.011606,9.60569106 C28.3557289,9.46747967 28.6998518,9.53658537 28.9751502,9.67479675 C29.2504485,9.88211382 29.3880977,10.1585366 29.3880977,10.504065 L29.3880977,16.5853659 C29.3880977,17.2073171 28.9751502,17.7601626 28.4245535,18.0365854 L15.8296545,23.2195122 C15.416707,23.2195122 15.1414086,23.2886179 14.8661103,23.2886179 Z" id="Path"></path>
                            <path d="M14.6596365,26.8821138 C14.3843382,26.8821138 14.0402153,26.8130081 13.8337415,26.7439024 L6.26303721,23.703252 C5.98773887,23.5650407 5.8500897,23.2886179 5.98773887,23.0121951 C6.12538804,22.7357724 6.40068638,22.597561 6.67598472,22.7357724 L14.246689,25.7764228 C14.4531628,25.8455285 14.9349349,25.8455285 15.1414086,25.7764228 L22.9185867,22.7357724 C23.193885,22.597561 23.4691834,22.7357724 23.6068325,23.0121951 C23.7444817,23.2886179 23.6068325,23.5650407 23.3315342,23.703252 L15.5543561,26.7439024 C15.2790578,26.8130081 15.0037595,26.8821138 14.6596365,26.8821138 Z" id="Path"></path>
                        </g>
                    </g>
                </g>
            </g>
        </g>
    </g>
</svg>